<svg width="192" height="41" viewBox="0 0 192 41" fill="none" xmlns="http://www.w3.org/2000/svg">
<path fill-rule="evenodd" clip-rule="evenodd" d="M50.6961 0C51.2909 1.15151e-05 51.797 0.104594 52.1981 0.369141C52.6075 0.639314 52.8546 1.04092 52.9969 1.52637L53.0447 1.71973C53.0834 1.91189 53.0955 2.10648 53.0955 2.32227V2.55762L53.0838 2.60742C53.0745 2.6449 53.0698 2.6929 53.0643 2.78711C53.0596 2.86659 53.0536 2.99339 53.0223 3.11914L53.0203 3.12793L53.0174 3.13574C52.9688 3.30146 52.9345 3.46096 52.8836 3.65918C52.8397 3.83016 52.7842 4.01902 52.7059 4.19727C52.705 4.20201 52.704 4.21037 52.702 4.22266C52.6976 4.24912 52.6879 4.31268 52.6658 4.37891L52.6619 4.38965L52.657 4.40137C52.5329 4.71237 52.3799 5.04386 52.2654 5.31152C52.1237 5.65629 51.9717 6.00178 51.7752 6.33203L51.7762 6.33301C51.739 6.4003 51.7087 6.47488 51.66 6.58984C51.6171 6.69086 51.5594 6.82022 51.4783 6.94434L51.4793 6.94531C51.3781 7.10763 51.2889 7.25074 51.2186 7.38965L51.2176 7.39453C51.2154 7.40113 51.2111 7.41142 51.2069 7.42285C51.1911 7.46486 51.1655 7.52059 51.1209 7.57812C50.9174 7.94264 50.6967 8.3064 50.4803 8.66113L50.4764 8.66797L50.4715 8.6748C50.4507 8.70617 50.4336 8.7417 50.3953 8.82129C50.3628 8.88888 50.3166 8.98139 50.2498 9.07812L50.2508 9.0791C49.6585 9.99993 49.0644 10.9234 48.4705 11.8262L48.4695 11.8252C48.3202 12.0593 48.1139 12.3165 47.9725 12.5107C47.9073 12.6041 47.8493 12.7 47.7752 12.8154C47.7046 12.9255 47.6237 13.0483 47.5281 13.168C47.504 13.202 47.4819 13.2309 47.4666 13.25C47.4465 13.2752 47.4353 13.2869 47.4266 13.2998L47.4276 13.3008C46.7057 14.3959 45.9185 15.4347 45.1697 16.4688L45.1658 16.4746C45.114 16.5437 45.0499 16.6062 45.0145 16.6416C44.9721 16.6841 44.9522 16.7032 44.9422 16.7158C44.6695 17.1023 44.4458 17.3728 44.1981 17.7451L44.1912 17.7549L44.1844 17.7637C44.1568 17.8005 44.1282 17.8335 44.1053 17.8584C44.0853 17.88 44.0554 17.9104 44.0418 17.9248C44.0039 17.9651 43.9902 17.9842 43.9842 17.9941L43.9754 18.0088L43.9647 18.0234C43.6713 18.4328 43.3578 18.8257 43.0526 19.208C42.7451 19.5931 42.4454 19.9687 42.1668 20.3574L42.1473 20.3848L42.075 20.457C41.9534 20.5993 41.8542 20.717 41.7733 20.8467L41.7664 20.8574C41.7163 20.9327 41.6528 20.9923 41.619 21.0234C41.602 21.039 41.5837 21.0542 41.5721 21.0645C41.4307 21.2646 41.2904 21.4462 41.1561 21.6191L41.0975 21.6934L41.0682 21.707C41.0654 21.7103 41.0629 21.7149 41.0594 21.7188C41.0248 21.763 40.9854 21.8097 40.9647 21.835C40.9331 21.8734 40.9128 21.9014 40.8983 21.9258L40.8358 22.0303L40.7401 22.0762C40.6926 22.1507 40.645 22.2194 40.6082 22.2686L40.5906 22.292L40.5701 22.3135C40.549 22.3347 40.5276 22.3528 40.5145 22.3643C40.4981 22.3785 40.4913 22.3844 40.4822 22.3926C40.4741 22.4 40.4715 22.4023 40.4715 22.4023L40.4559 22.4268L40.4403 22.4424C40.4403 22.4424 40.4376 22.4464 40.4363 22.4482C40.4327 22.4537 40.4262 22.4634 40.4197 22.4727C40.4007 22.4999 40.3674 22.5415 40.3201 22.5859C40.3537 22.5868 40.3848 22.5889 40.4149 22.5889C40.4993 22.5889 40.5507 22.583 40.5819 22.5752L40.6317 22.5625H41.95C42.0293 22.5625 42.1365 22.5694 42.1961 22.5713C42.2747 22.5738 42.3145 22.5711 42.3309 22.5684L42.3651 22.5625H42.8592C42.9881 22.5417 43.107 22.55 43.1697 22.5537C43.2156 22.5564 43.2438 22.558 43.2684 22.5576C43.29 22.5573 43.2996 22.5547 43.2996 22.5547L43.3367 22.5459L43.3748 22.543L46.0028 22.3799C46.1423 22.3571 46.3565 22.3379 46.4861 22.3379C46.554 22.3379 46.6344 22.3334 46.7293 22.3281C46.8181 22.3232 46.9221 22.3174 47.0174 22.3174C47.1577 22.3174 47.2722 22.3151 47.324 22.3047C47.3915 22.2912 47.4534 22.29 47.4979 22.291C47.5423 22.292 47.5855 22.2964 47.6131 22.2988C47.646 22.3017 47.661 22.3025 47.6717 22.3027C47.665 22.3031 47.6505 22.3048 47.6317 22.3096C47.6864 22.2959 47.7365 22.2902 47.7733 22.2881C47.8091 22.286 47.8434 22.2861 47.8631 22.2861H47.8924C48.0437 22.2493 48.1844 22.2635 48.286 22.2861C48.3966 22.3108 48.4909 22.3505 48.5535 22.3818L48.6141 22.4121L48.6551 22.4531C48.6585 22.442 48.6612 22.4301 48.6649 22.4189L48.6736 22.3906L48.6873 22.3643C48.6921 22.3547 48.699 22.3464 48.7039 22.3379V22.2754L48.7244 22.2549V22.2402L48.7947 22.1348L48.8211 22.0947C48.8273 22.0636 48.838 22.0208 48.8602 21.9746C48.8749 21.9354 48.8927 21.9031 48.909 21.8779L48.9149 21.8477L48.9363 21.7158L48.9705 21.6816V21.6533L49.0145 21.5654C49.0288 21.5367 49.0458 21.5134 49.0594 21.4941L49.0936 21.3945C49.1096 21.3435 49.1295 21.3079 49.1365 21.2959C49.1497 21.2736 49.165 21.2553 49.1766 21.2402C49.1783 21.2326 49.1812 21.2233 49.1834 21.2129C49.1929 21.1679 49.2081 21.0932 49.2371 21.0059L49.2479 20.9717L49.2654 20.9404L49.3787 20.7285V20.5557L49.4949 20.4385L49.4998 20.4316C49.5029 20.4264 49.5066 20.4199 49.5145 20.3916C49.5207 20.3691 49.5405 20.2842 49.5721 20.2051L49.5809 20.1826L49.5916 20.1621L49.7 19.96L49.7098 19.8916L49.7205 19.8184L49.7557 19.7529L49.8748 19.5303L49.9022 19.4189L49.9481 19.2334L49.9705 19.2217L49.9715 19.2207L50.0213 19.1455L50.0789 19.0576C50.2939 18.5094 50.5152 17.9457 50.7762 17.3994L50.8104 17.2998C50.8264 17.2487 50.8463 17.2132 50.8533 17.2012C50.8734 17.1671 50.8949 17.1399 50.908 17.124L51.2059 16.3594L51.2283 16.2998L51.2684 16.25L51.3006 16.209L51.3592 16.0195L51.3895 15.9209L51.4471 15.8613L51.4588 15.8232C51.4752 15.7624 51.4997 15.7205 51.5076 15.707C51.5208 15.6847 51.5351 15.6655 51.5467 15.6504L51.6043 15.4668L51.6278 15.3906L51.7215 15.2725C51.8569 14.9309 52.0073 14.6087 52.1561 14.3086L52.1658 14.2588L52.1824 14.1777L52.2283 14.1094L52.285 14.0225L52.4334 13.6533L52.4529 13.6016L52.4861 13.5576L52.491 13.5508L52.493 13.542L52.5037 13.4873L52.5291 13.4375C52.5477 13.4002 52.5685 13.3652 52.5848 13.3389C52.5993 13.3153 52.6196 13.2832 52.6307 13.2656C52.6603 13.2186 52.6734 13.1952 52.6785 13.1826L52.6815 13.1748L52.6844 13.168C52.9224 12.6313 53.1829 12.0677 53.4647 11.5381L53.4735 11.4951L53.492 11.4023L53.5486 11.3262L53.5838 11.2783L53.7899 10.8291L53.7938 10.8203L53.7986 10.8105C54.304 9.83845 54.8279 8.78965 55.4354 7.86621L55.4461 7.84961C55.4523 7.8347 55.4604 7.81315 55.4715 7.79199C55.4858 7.76475 55.5071 7.73242 55.535 7.69824L55.6951 7.4873L55.7147 7.43164L55.7459 7.33789L55.8153 7.26855L55.8582 7.22461C55.864 7.20974 55.8712 7.19091 55.8807 7.17188L55.9246 7.08398L56.0028 7.02539L56.0125 7.01758C56.016 7.01025 56.0192 7.00189 56.0233 6.99414C56.0431 6.95638 56.0743 6.90711 56.1219 6.85938L56.1385 6.84277L56.1854 6.80371L56.2225 6.73145L56.283 6.67871L56.4178 6.55664C56.4516 6.50415 56.5049 6.43667 56.5838 6.38379C56.6134 6.36098 56.641 6.3427 56.6649 6.33008C56.6866 6.3186 56.7084 6.31 56.7235 6.30371L56.8963 6.16992L56.9529 6.125L57.0203 6.10254C57.0852 6.08086 57.147 6.07086 57.1922 6.06445C57.2326 6.05873 57.2845 6.05309 57.3045 6.05078C57.3081 6.05036 57.3113 6.0492 57.3143 6.04883L57.3817 5.99902H57.5203C57.7187 5.99903 57.9064 6.03281 58.074 6.13574C58.2133 6.22141 58.3046 6.33661 58.3699 6.43066C58.4206 6.47663 58.5399 6.59204 58.6092 6.74219L58.6111 6.74707C58.6152 6.75592 58.6202 6.76535 58.6238 6.77441H58.6219C58.6949 6.94084 58.7146 7.14676 58.7147 7.29688C58.7146 7.44293 58.6985 7.63982 58.6531 7.80469V7.94043L58.6424 7.9873C58.5453 8.39581 58.4554 8.83669 58.3045 9.27051L58.3055 9.27148C58.0332 10.0897 57.6987 10.8643 57.3729 11.6191L57.3709 11.623L56.7986 12.9131L56.7879 12.9385L56.7733 12.9619L56.6268 13.1992C56.4993 13.491 56.3555 13.811 56.1766 14.1045C56.1533 14.1885 56.1215 14.2499 56.116 14.2607L56.1111 14.2715L55.9676 14.5381L55.9529 14.5654L55.9393 14.584C55.9374 14.5887 55.9341 14.597 55.9295 14.6094C55.9171 14.6426 55.8894 14.7183 55.8358 14.7998C55.7094 15.0143 55.593 15.239 55.4656 15.4785C55.3447 15.706 55.2139 15.9439 55.0682 16.1758C55.0447 16.2239 55.0297 16.2621 54.9959 16.3359C54.9669 16.3994 54.9283 16.4743 54.8778 16.5537L54.8787 16.5547C54.5049 17.2052 54.1181 17.954 53.6785 18.6045C53.6306 18.6765 53.5943 18.7467 53.5477 18.835C53.5025 18.9204 53.4473 19.0258 53.3729 19.1377L52.2938 20.8076L52.2947 20.8086C52.2268 20.9155 52.1703 21.0164 52.0936 21.1445C52.0286 21.253 51.9515 21.3704 51.8641 21.4844L51.8651 21.4854C51.534 22.0036 51.1822 22.521 50.8319 23.0166C50.6907 23.2227 50.5352 23.4213 50.3856 23.6094C50.2319 23.8024 50.0859 23.9839 49.949 24.1699L49.9442 24.1758L49.9383 24.1826L49.8572 24.2852L49.8563 24.2842C49.7328 24.4433 49.5677 24.6604 49.3475 24.8232L49.2557 24.9307L49.2254 24.9658L49.1883 24.9932C49.1398 25.0295 49.0906 25.053 49.0506 25.0693L49.0486 25.082L48.9998 25.1572L48.9754 25.1934C48.9684 25.232 48.9557 25.2748 48.9373 25.3193L48.9393 25.3203L48.5809 26.2598L48.5477 26.375C48.5348 26.4357 48.5092 26.4842 48.4871 26.5215C48.4811 26.5605 48.4712 26.6054 48.4549 26.6543L48.4412 26.6973L48.4178 26.7373L48.4158 26.7402V26.873L48.324 26.9873L48.3211 26.9902C48.3152 27.0257 48.3056 27.0703 48.2869 27.1172C48.2574 27.2124 48.2092 27.3163 48.1746 27.3867L48.1258 27.6562L48.0692 27.7305L48.0643 27.7686L48.0486 27.875L48.0067 27.9307V28.0254L47.952 28.1211L47.9207 28.1748C47.916 28.2255 47.9062 28.2857 47.8836 28.3535L47.8817 28.3594C47.7444 28.7523 47.6252 29.1883 47.5018 29.6416L47.4979 29.6543C47.4617 29.7722 47.4285 29.9083 47.3924 30.0605C47.3646 30.1778 47.3318 30.3056 47.2986 30.4307C47.3254 30.4031 47.3519 30.3781 47.3758 30.3555C47.4347 30.2995 47.4722 30.266 47.5184 30.2197C47.5509 30.1872 47.5845 30.1472 47.6278 30.0918C47.6668 30.0418 47.7227 29.9673 47.7791 29.8994L47.7879 29.8896L48.0926 29.5449C48.1131 29.5139 48.1339 29.4878 48.1512 29.4678C48.1788 29.4357 48.2077 29.4065 48.2235 29.3906C48.2352 29.3789 48.2422 29.3712 48.2469 29.3662L48.2576 29.3467L48.285 29.3125C48.4665 29.0851 48.6059 28.9308 48.7391 28.7402L48.7596 28.71L48.786 28.6846C48.8087 28.6618 48.8313 28.6405 48.8494 28.624C48.8703 28.6051 48.8825 28.5947 48.8973 28.5811C48.9104 28.5689 48.9181 28.5605 48.9227 28.5557L48.9236 28.5537L48.9305 28.5449C49.1803 28.2112 49.4472 27.8815 49.702 27.5605C49.9591 27.2366 50.2075 26.917 50.4344 26.5908L50.4442 26.5771L50.4549 26.5645L50.8387 26.0986C51.1339 25.6978 51.4213 25.3333 51.702 24.9316C51.7676 24.8354 51.853 24.7503 51.8953 24.7061C51.9513 24.6474 51.9752 24.6183 51.9881 24.5957L51.9969 24.5801L52.0067 24.5664C52.218 24.2594 52.4444 23.9638 52.6629 23.6787C52.8836 23.3907 53.0965 23.1117 53.2938 22.8252L53.3026 22.8135L53.3123 22.8018C53.4507 22.6285 53.6629 22.4816 53.9442 22.4814L54.0955 22.4961C54.1908 22.5144 54.2696 22.5488 54.3279 22.5762C54.3751 22.4946 54.4251 22.4079 54.4822 22.3125C54.6017 22.1131 54.7455 21.8935 54.9354 21.7031L54.9569 21.6816L54.9803 21.6641C55.0342 21.6236 55.0869 21.5963 55.1287 21.5781C55.1628 21.5633 55.1971 21.5514 55.2156 21.5449L55.3035 21.457H55.4764C55.6942 21.4571 55.8997 21.5505 56.0486 21.6777C56.1988 21.8061 56.3435 22.0157 56.3436 22.2842V22.3926L56.3221 22.457C56.2846 22.5697 56.2304 22.739 56.1414 22.8877L56.1375 22.8945C55.7772 23.4722 55.431 23.9748 55.1444 24.5566L55.3104 24.4209L55.6883 24.082L55.7039 24.0674C55.7068 24.0643 55.7097 24.0607 55.7127 24.0576L55.7606 24.0098L55.7801 23.999L55.8074 23.9756H55.8211C55.8463 23.9442 55.871 23.9189 55.8758 23.9141L55.8924 23.8975L55.91 23.8828C55.9384 23.86 55.9688 23.8302 56.0076 23.7891C56.0382 23.7567 56.096 23.693 56.1414 23.6475C56.1868 23.602 56.2507 23.5443 56.283 23.5137C56.3239 23.4749 56.3541 23.4444 56.3768 23.416C56.4274 23.3503 56.481 23.2974 56.5223 23.2588C56.5687 23.2154 56.5921 23.1942 56.6219 23.165C56.7378 23.0108 56.8632 22.8625 56.9813 22.7256C57.1132 22.5726 57.2371 22.4303 57.3494 22.2803L57.3924 22.2227L57.4442 22.1875C57.4522 22.1752 57.4619 22.1614 57.4715 22.1465C57.491 22.1162 57.5146 22.08 57.5399 22.043C57.6183 21.8971 57.6999 21.7532 57.7869 21.6133C57.8107 21.565 57.8318 21.5186 57.8553 21.4668C57.8804 21.4113 57.9088 21.3482 57.9432 21.2793L57.9627 21.2393L57.991 21.2051C58.0363 21.1484 58.0964 21.0801 58.1287 21.042C58.1695 20.994 58.1918 20.9635 58.2039 20.9434L58.2088 20.9355L58.2147 20.9268C58.3286 20.7557 58.6191 20.4587 59.0535 20.5312L59.1424 20.5508L59.2713 20.5947C59.3967 20.6472 59.5102 20.7253 59.5985 20.835C59.7165 20.9818 59.7616 21.1505 59.7664 21.3037C59.774 21.5517 59.6771 21.7909 59.574 21.9746C59.5559 22.0536 59.5282 22.1228 59.5076 22.1641L59.491 22.1973L59.4686 22.2275C59.4323 22.276 59.4061 22.31 59.3797 22.3486C59.369 22.3643 59.3615 22.3781 59.3553 22.3887C59.3491 22.4202 59.3353 22.4702 59.3065 22.5254C59.2191 22.7402 59.1142 22.9525 59.0174 23.1465C58.9935 23.1942 58.9659 23.2311 58.9442 23.2568C58.9416 23.2597 58.9378 23.2619 58.9354 23.2646C58.9271 23.2927 58.9151 23.3324 58.8953 23.3721L58.8944 23.3711L58.619 23.9766C58.6165 23.9886 58.6142 24.0002 58.6121 24.0088V24.0654L58.5809 24.1416C58.4943 24.3538 58.412 24.569 58.3485 24.79C58.4329 24.7344 58.5127 24.6794 58.5867 24.6201L58.5936 24.6152L58.7733 24.4688C58.8338 24.4171 58.896 24.3628 58.9608 24.3057C59.0687 24.2105 59.1855 24.107 59.3084 24.0088C59.3174 23.9963 59.3269 23.986 59.3319 23.9795C59.3362 23.9736 59.3388 23.9693 59.3406 23.9668L59.3797 23.8887L59.4637 23.8281C59.5691 23.7526 59.6447 23.6601 59.7996 23.5049C59.8182 23.4863 59.8349 23.4696 59.8485 23.458L59.8533 23.4502L59.9012 23.4023C60.0421 23.2612 60.0844 23.235 60.1356 23.1582C60.211 23.0449 60.308 22.9608 60.3651 22.9111C60.4345 22.8506 60.4647 22.8242 60.4891 22.7949C60.5877 22.6557 60.6922 22.5287 60.7879 22.416C60.8945 22.2905 60.9861 22.1848 61.0682 22.0752L61.0867 22.0518L61.1072 22.0303C61.1303 22.0071 61.1523 21.9873 61.1697 21.9717C61.1913 21.9524 61.1976 21.9466 61.2108 21.9346C61.2174 21.9286 61.2213 21.9241 61.2235 21.9219L61.241 21.8955L61.2537 21.8818C61.2615 21.8694 61.272 21.8527 61.284 21.832C61.2863 21.828 61.2891 21.8231 61.2918 21.8184V21.7559L61.3358 21.668C61.348 21.6434 61.361 21.6213 61.3738 21.6025V21.5713L61.4178 21.4834C61.4297 21.4596 61.4424 21.4382 61.4549 21.4199V21.3877L61.4988 21.2998C61.5107 21.276 61.5244 21.2546 61.5369 21.2363V21.2031L61.5809 21.1152C61.6002 21.0764 61.6223 21.0448 61.6414 21.0205C61.649 20.9934 61.6577 20.9677 61.6678 20.9443C61.6769 20.9202 61.6896 20.9 61.7 20.8818V20.835L61.744 20.7471C61.7561 20.7227 61.7694 20.7002 61.782 20.6816V20.5762L61.8641 20.4941V20.3916L61.9461 20.3096V20.3027L61.9901 20.2139C62.0023 20.1894 62.0161 20.1684 62.0272 20.1514V20.1182L62.0711 20.0303C62.0833 20.0058 62.0964 19.9835 62.1092 19.9648V19.8594L62.1912 19.7773V19.7695L62.2352 19.6816C62.2464 19.6591 62.2611 19.6408 62.2723 19.624V19.4912L62.3338 19.4297V19.4092L62.3748 19.3672L62.3846 19.3447C62.4215 19.2523 62.4822 19.1371 62.5174 19.0713V18.9385L62.5789 18.876V18.8564L62.6121 18.8232L62.6434 18.7607C62.6559 18.7357 62.6686 18.7124 62.6815 18.6924V18.6436L62.7254 18.5557C62.746 18.5144 62.7689 18.4809 62.7889 18.4561C62.7976 18.4213 62.8107 18.3863 62.8279 18.3516L62.8572 18.291L62.9051 18.2422C62.9369 18.1582 62.967 18.0788 62.9969 18.0039C63.0379 17.9011 63.0768 17.8045 63.1151 17.6992L63.1463 17.6123L63.1717 17.5869V17.4844L63.2733 17.3818L63.3065 17.3369L63.3084 17.332C63.3103 17.3254 63.3132 17.3177 63.3162 17.3066C63.319 17.2965 63.3228 17.282 63.327 17.2676C63.3357 17.2371 63.3478 17.1976 63.3651 17.1543L63.3719 17.1387L63.3797 17.123C63.4088 17.0647 63.4487 16.9974 63.4764 16.9512C63.4848 16.9371 63.492 16.9237 63.4988 16.9121V16.7676L63.5604 16.7061V16.6855L63.6199 16.625C63.6219 16.6188 63.6235 16.6118 63.6258 16.6055C63.6344 16.582 63.6469 16.556 63.6619 16.5293V16.5127L63.6922 16.4375C63.728 16.3479 63.7771 16.2684 63.8084 16.2188C63.8152 16.208 63.8207 16.1978 63.826 16.1895V16.1387L63.8592 16.0596C63.9004 15.9632 63.9592 15.8601 64.0018 15.7842C64.0371 15.7213 64.0619 15.6707 64.0818 15.6309C64.0905 15.5823 64.1059 15.5233 64.1356 15.4639L64.2156 15.3154C64.2422 15.2675 64.2626 15.2294 64.2781 15.1982C64.2781 15.1982 64.2801 15.1949 64.2889 15.1621C64.2979 15.1283 64.3144 15.0624 64.3455 14.9844L64.3777 14.9043L64.4383 14.8438L64.4627 14.8184C65.0277 13.5074 65.6143 12.2344 66.2401 10.9805C66.5216 10.4163 66.7994 9.83742 67.1629 9.28027C67.2182 9.18742 67.2813 9.10679 67.3299 9.0459C67.389 8.97186 67.4232 8.93026 67.451 8.88867L67.5018 8.82227C67.5535 8.76338 67.6076 8.72418 67.6483 8.69824C67.6722 8.68295 67.6979 8.66936 67.7088 8.66309C67.7265 8.64077 67.7833 8.56636 67.8738 8.50586L67.8953 8.49121L67.9188 8.48047C67.9477 8.46595 67.9741 8.45638 67.993 8.4502C68.0074 8.44548 68.0202 8.44035 68.0311 8.4375L68.0848 8.38477L68.243 8.375C68.4719 8.36069 68.7023 8.40245 68.8992 8.49707C69.0878 8.58782 69.2773 8.74507 69.369 8.97949C69.3713 8.98514 69.3746 8.99137 69.3768 8.99707C69.465 9.22467 69.4501 9.50031 69.4266 9.68848C69.4044 9.86533 69.3615 10.0451 69.3152 10.1826C69.3116 10.2265 69.3023 10.2831 69.2811 10.3438L69.282 10.3447C68.9047 11.6047 68.3795 12.7197 67.8943 13.8135L67.8934 13.8164C67.8341 13.9471 67.7614 14.0739 67.7078 14.1719C67.6501 14.2776 67.6071 14.3613 67.5779 14.4414L67.5721 14.458L67.5652 14.4736C67.4526 14.7182 67.3239 14.9924 67.157 15.2539C67.1503 15.2803 67.1371 15.3328 67.1102 15.3867L67.1024 15.4014L67.0945 15.415C67.012 15.5529 66.9373 15.7015 66.8533 15.8672C66.7795 16.0129 66.6957 16.1723 66.6024 16.3232V16.3916L66.532 16.4961C66.4624 16.6007 66.3902 16.7253 66.3104 16.8652L66.2518 16.9834L66.243 17.001L66.2322 17.0186C66.0851 17.2544 65.9466 17.5017 65.7996 17.7627C65.6567 18.0164 65.5047 18.2815 65.3377 18.5439C65.068 19.0012 64.7783 19.4589 64.493 19.9082L64.492 19.9072C64.4463 19.9901 64.3961 20.0616 64.3563 20.1133C64.3037 20.1814 64.2731 20.2185 64.243 20.2637C64.1217 20.446 64.043 20.5922 63.9227 20.7852L63.9158 20.7969L63.908 20.8086C63.5415 21.3187 63.1958 21.807 62.8514 22.3145L62.8426 22.3271L62.8328 22.3398C62.7903 22.3931 62.7426 22.452 62.6971 22.5078C62.6821 22.5261 62.6676 22.5448 62.6531 22.5625C62.7464 22.4611 62.8431 22.3685 62.9412 22.2803C63.0161 22.1866 63.1174 22.0628 63.2469 21.959L63.2537 21.9531C63.3324 21.8929 63.4109 21.827 63.4998 21.7529C63.5862 21.681 63.6818 21.6014 63.783 21.5254C63.9841 21.3743 64.2245 21.2227 64.5193 21.1309L64.6131 21.1055C64.712 21.0838 64.8231 21.0736 64.9207 21.0713C65.0344 21.0687 65.2048 21.0762 65.3553 21.1318L65.3563 21.1309C65.3626 21.133 65.3687 21.1364 65.3748 21.1387C65.3792 21.1404 65.3841 21.1417 65.3885 21.1436L65.3875 21.1445C65.4544 21.1708 65.5057 21.2011 65.535 21.2207C65.5433 21.2262 65.5513 21.2318 65.5565 21.2354L65.577 21.2471L65.5994 21.2617C65.6052 21.2655 65.6143 21.2701 65.6463 21.2861L65.783 21.3643L65.8524 21.4102L65.8983 21.4795C65.9351 21.5349 65.9614 21.5892 65.9754 21.6172C65.9825 21.6313 65.9885 21.6407 65.992 21.6475C66.0316 21.6834 66.1096 21.7618 66.1512 21.8867L66.1727 21.9502V21.9951C66.1732 21.9981 66.1736 22.0025 66.1746 22.0078C66.1761 22.0154 66.178 22.0283 66.1805 22.042C66.1967 22.0774 66.2158 22.1205 66.2332 22.1729L66.2547 22.2373V22.4121C66.2745 22.475 66.2903 22.5589 66.2772 22.6572V22.6631C66.2785 22.6853 66.2801 22.7204 66.2801 22.7578C66.2801 22.8102 66.2757 22.9051 66.241 23.0078L66.2391 23.0137C66.3007 22.9717 66.3733 22.9237 66.4481 22.8721L66.8416 22.6064C67.0579 22.4669 67.2997 22.4682 67.4813 22.5195C67.6492 22.5671 67.8308 22.6764 67.9412 22.8516C67.9428 22.8539 67.9446 22.8571 67.9461 22.8594C67.9495 22.8648 67.9536 22.8704 67.9568 22.876H67.9549C68.0477 23.0288 68.0709 23.1977 68.0623 23.332C68.0539 23.462 68.0116 23.6131 67.9197 23.7422L67.9217 23.7441C67.9186 23.7486 67.914 23.7524 67.9109 23.7568C67.9072 23.762 67.9042 23.7684 67.9002 23.7734L67.8983 23.7715C67.7925 23.9131 67.6535 23.9892 67.5643 24.0293C67.5133 24.0522 67.4617 24.0708 67.4236 24.085C67.3915 24.0969 67.3684 24.1063 67.3484 24.1143C66.9451 24.3633 66.774 24.4516 66.6092 24.5342C66.264 24.7376 65.9339 24.9336 65.6248 25.1465L65.6092 25.1562C65.5173 25.2138 65.4236 25.2647 65.3582 25.3018C65.3001 25.3348 65.2504 25.3667 65.2 25.4023C65.1982 25.406 65.1969 25.4106 65.1951 25.4141C65.1845 25.435 65.1662 25.4691 65.1424 25.5049L65.0809 25.5967L65.0428 25.6152L65.0086 25.6504C65.0073 25.652 64.9988 25.6621 64.9793 25.6914C64.9622 25.7171 64.9234 25.7779 64.8836 25.8311L64.825 25.9102L64.7576 25.9434C64.7552 25.9456 64.7523 25.9488 64.7488 25.9521C64.7464 25.9545 64.7427 25.9564 64.7401 25.959C64.5713 26.1856 64.3815 26.377 64.158 26.5479C64.1546 26.5529 64.1512 26.559 64.1473 26.5645C64.1367 26.579 64.1159 26.6056 64.0887 26.6328L64.0604 26.6621L64.0252 26.6855C64.0119 26.6945 63.9997 26.7046 63.9735 26.7256C63.9523 26.7425 63.9188 26.7667 63.8797 26.7939L63.8807 26.7949C63.8749 26.7993 63.8685 26.8038 63.8621 26.8086L63.8611 26.8076C63.7351 26.902 63.4927 27.0796 63.2244 27.1777C63.0809 27.2302 62.8966 27.2735 62.701 27.2461C62.4899 27.2164 62.2951 27.1081 62.1512 26.916L62.1444 26.9062L62.1385 26.8975C62.0603 26.78 61.9966 26.6117 61.9656 26.4502C61.9375 26.3028 61.9178 26.0623 62.0311 25.8447C62.089 25.7286 62.1702 25.6543 62.2186 25.6133C62.2339 25.6003 62.254 25.5832 62.2664 25.5732C62.2775 25.5574 62.2888 25.5431 62.2947 25.5352C62.2969 25.5323 62.2982 25.5293 62.2996 25.5273L62.3367 25.4551L62.409 25.3984C62.5278 25.3032 62.6446 25.2311 62.7703 25.166C62.8588 25.0979 62.9522 25.0301 63.0477 24.9639L63.3738 24.752C63.4768 24.6843 63.5768 24.6289 63.6629 24.582C63.73 24.5455 63.785 24.5136 63.8358 24.4844C63.8416 24.4747 63.8492 24.4636 63.8563 24.4512C63.8834 24.4031 63.9107 24.3512 63.9315 24.3096L63.9403 24.29L63.952 24.2715C64.0813 24.0678 64.2126 23.823 64.327 23.5762C64.3984 23.3762 64.4545 23.1734 64.5145 22.9531L64.5174 22.9414L64.5213 22.9307C64.5276 22.9117 64.5339 22.8799 64.5408 22.8203C64.5434 22.798 64.5481 22.7615 64.5526 22.7217C64.539 22.7278 64.5247 22.7327 64.5115 22.7393C64.4832 22.7535 64.4554 22.7726 64.4119 22.8047C64.3804 22.8279 64.3236 22.868 64.2625 22.9072L64.2635 22.9092C63.9213 23.1568 63.675 23.384 63.4041 23.6748L63.3944 23.6846C62.8349 24.2451 62.3451 24.8878 61.8875 25.5635C61.8475 25.6422 61.7985 25.6983 61.7674 25.7295C61.7629 25.734 61.7571 25.738 61.7528 25.7422C61.7472 25.7555 61.743 25.7715 61.7352 25.7871L61.7235 25.8105L61.7098 25.832C61.6596 25.9074 61.5984 25.9863 61.5496 26.0498C61.5085 26.1034 61.475 26.1491 61.4471 26.1885C61.4426 26.2025 61.4376 26.2216 61.4295 26.2402C61.4136 26.2767 61.3838 26.3337 61.3299 26.3877C61.3227 26.3949 61.3157 26.4018 61.3094 26.4082V26.5107L61.1873 26.6328C61.1712 26.6489 61.1531 26.661 61.1375 26.6729L61.1356 26.6777C61.1298 26.6893 61.1231 26.7022 61.1141 26.7217C61.1056 26.74 61.0949 26.7649 61.0819 26.791L61.076 26.8008L61.0701 26.8115C60.9761 26.9762 60.8609 27.137 60.7615 27.2764C60.7598 27.2808 60.757 27.2898 60.7518 27.3037C60.7387 27.3387 60.7083 27.4199 60.6492 27.5059C60.4365 27.8353 60.2411 28.2082 60.035 28.6006L60.0252 28.6191L60.0135 28.6377L59.7869 28.9775C59.7802 28.9928 59.7723 29.0127 59.7606 29.0439C59.7463 29.0822 59.7238 29.1437 59.6922 29.207L59.6619 29.2676L59.6141 29.3154L59.5926 29.3359L59.3153 29.8369L59.3016 29.8623L59.2947 29.8711C59.2927 29.8768 59.2894 29.8863 59.285 29.8994C59.2739 29.9327 59.245 30.0225 59.1854 30.1143C59.1668 30.1452 59.1464 30.18 59.1287 30.208C59.1099 30.2378 59.092 30.2652 59.076 30.292C59.0413 30.35 59.0248 30.385 59.0194 30.4014L59.0145 30.417L59.0076 30.4336C58.983 30.4912 58.9614 30.5509 58.9354 30.624C58.9126 30.6878 58.8837 30.7632 58.8514 30.8408L58.8524 30.8418C58.8404 30.8749 58.8316 30.9068 58.8201 30.9531C58.8107 30.9914 58.7939 31.0664 58.7645 31.1377C58.7307 31.2193 58.6772 31.3087 58.5887 31.3877C58.5032 31.4639 58.4048 31.513 58.3065 31.5459L58.242 31.5674H58.201L58.1336 31.5801C58.1048 31.5843 58.0698 31.5879 58.0311 31.5879H57.9725L57.9158 31.5713C57.7619 31.5272 57.5983 31.4226 57.4822 31.2832C57.3642 31.1411 57.2469 30.8934 57.3494 30.6084C57.4027 30.4484 57.5117 30.2528 57.5555 30.165L57.5623 30.1504L57.5701 30.1367C57.5747 30.1291 57.5782 30.1222 57.5936 30.0762C57.6072 30.0352 57.6324 29.9615 57.6785 29.8779L57.8533 29.5244C57.8537 29.522 57.854 29.519 57.8543 29.5166C57.8619 29.467 57.8773 29.4161 57.9022 29.3662C57.9398 29.2817 57.9854 29.1977 58.0233 29.1289C58.0534 29.0742 58.0769 29.0294 58.0975 28.9912C58.0979 28.9873 58.098 28.9825 58.0985 28.9785C58.1041 28.9333 58.1175 28.8751 58.1483 28.8135L58.1776 28.7529L58.2117 28.7178C58.2223 28.6905 58.233 28.6654 58.243 28.6387C58.2583 28.5978 58.2745 28.5526 58.2967 28.4971L58.3035 28.4805L58.3113 28.4658C58.3282 28.4321 58.3463 28.4036 58.3592 28.3848C58.3718 28.3664 58.3847 28.3488 58.3914 28.3398C58.4421 28.2025 58.4962 28.0744 58.5467 27.957C58.6046 27.8226 58.6567 27.7041 58.7039 27.5811L58.7108 27.5625L58.7195 27.5439C58.7315 27.52 58.7451 27.4988 58.7576 27.4805V27.4277L58.8016 27.3389C58.8254 27.2912 58.853 27.2543 58.8748 27.2285C58.8794 27.2231 58.8841 27.2177 58.8885 27.2129C58.8958 27.1924 58.9044 27.1705 58.9139 27.1436C58.9277 27.1044 58.9472 27.0558 58.9715 27.0029C58.9809 26.9781 58.9926 26.9571 59.0028 26.9395V26.7998L59.0848 26.7178V26.6162L59.1463 26.5547V26.5342L59.1795 26.501L59.2108 26.4385C59.2226 26.4147 59.2354 26.3933 59.2479 26.375V26.3408C59.0952 26.4612 58.9367 26.5764 58.7733 26.6855L58.7274 26.7168L58.6736 26.7344C58.6681 26.7365 58.627 26.7528 58.5682 26.7686C58.5171 26.8077 58.4495 26.8504 58.367 26.8779L58.3035 26.8994H58.2625C58.2517 26.902 58.2367 26.9061 58.2205 26.9092C58.2172 26.9098 58.2134 26.9095 58.2098 26.9102C58.2022 26.9137 58.1919 26.9191 58.1766 26.9268C58.1579 26.9361 58.128 26.951 58.0965 26.9648C58.0639 26.9791 58.0196 26.997 57.9686 27.0098L57.867 27.0352L57.7664 27.0098C57.7567 27.0073 57.7413 27.0044 57.7195 27.0029C57.697 27.0014 57.6741 27.001 57.6424 27.001C57.5676 27.001 57.4058 27.0058 57.2654 26.959L57.2576 26.957L57.2508 26.9541C57.0926 26.8947 56.9475 26.7782 56.8504 26.6895C56.7476 26.5955 56.6452 26.4828 56.5799 26.3848C56.5137 26.2851 56.49 26.1843 56.4793 26.1309C56.4742 26.1054 56.4699 26.0747 56.4676 26.0615C56.4661 26.0529 56.4638 26.046 56.4627 26.041L56.409 25.876C56.3812 25.7923 56.3804 25.7163 56.3826 25.6709C56.3833 25.6575 56.3852 25.6442 56.3865 25.6318C56.3779 25.6422 56.3666 25.653 56.3543 25.665C56.3238 25.702 56.2946 25.7289 56.2752 25.7451C56.2677 25.7514 56.2592 25.7577 56.2528 25.7627L56.0985 25.917L56.075 25.9346C55.9726 26.0116 55.8843 26.0952 55.7645 26.2041C55.6614 26.2977 55.5381 26.4035 55.3904 26.5C55.3817 26.511 55.3722 26.5261 55.3602 26.5391C55.3439 26.5565 55.3185 26.578 55.2869 26.6016L55.2879 26.6025C55.2023 26.6711 55.1139 26.718 55.0545 26.749C54.9872 26.7842 54.9491 26.8036 54.911 26.8291L54.8895 26.8428L54.866 26.8545C54.879 26.848 54.8864 26.8439 54.8807 26.8477C54.8782 26.8493 54.8748 26.8514 54.869 26.8555C54.8638 26.859 54.8556 26.8637 54.8475 26.8691C54.8216 26.8864 54.7779 26.9104 54.7225 26.9346L54.7235 26.9365C54.6344 26.9811 54.5476 26.9927 54.4998 26.9971C54.4953 26.9975 54.4906 26.9967 54.4861 26.9971C54.3934 27.0421 54.2731 27.083 54.1278 27.083H54.0867L54.0457 27.0752L53.9432 27.0547L53.9178 27.0498L53.8934 27.041C53.8489 27.0261 53.7712 27.001 53.6854 26.9551L53.577 26.9277L53.5164 26.9121L53.4627 26.8799C53.3046 26.7847 53.1186 26.6121 53.0369 26.3672L53.0154 26.3037V26.1982C53.0153 26.1893 53.0148 26.1828 53.0145 26.1787L53.0164 26.1836L52.9949 26.1191V26.1035C52.989 26.0865 52.9802 26.0624 52.9735 26.0361C52.9649 26.0024 52.9563 25.9557 52.9549 25.9014C52.6533 26.2925 52.3493 26.6785 52.0496 27.0576C51.6414 27.574 51.2432 28.0837 50.8719 28.6064L50.8631 28.6201L50.8533 28.6318C50.7188 28.7936 50.6597 28.845 50.5936 28.9443L50.5838 28.96L50.5721 28.9736L50.0096 29.6777C49.9916 29.7039 49.9743 29.7253 49.9608 29.7402C49.9369 29.7666 49.9132 29.7886 49.8973 29.8027C49.8833 29.8152 49.864 29.8329 49.8582 29.8379L49.8553 29.8389C49.7311 30.0015 49.6002 30.1559 49.4803 30.2969C49.3481 30.4523 49.2264 30.5983 49.116 30.7549L49.1092 30.7656L49.1082 30.7646C49.0744 30.8098 49.0381 30.8483 49.0096 30.876C48.9811 30.9037 48.951 30.9301 48.9295 30.9492C48.9053 30.9708 48.8892 30.986 48.8758 30.999C48.8692 31.0054 48.865 31.009 48.8631 31.0107L48.8592 31.0166C48.71 31.2087 48.4835 31.4602 48.2381 31.6377C48.2381 31.6377 48.2295 31.6494 48.2098 31.6758C48.1858 31.7079 48.1222 31.7956 48.0291 31.8672C47.8483 32.0081 47.6452 32.1678 47.4158 32.3057C47.327 32.3643 47.2239 32.4065 47.1307 32.4336C47.0187 32.4661 46.8876 32.4882 46.7518 32.4883H46.7098L46.6697 32.4805L46.4647 32.4395L46.4022 32.4268L46.3465 32.3965C45.9189 32.1627 45.8027 31.6734 45.8026 31.293C45.8026 31.1297 45.8244 30.952 45.8641 30.7764V30.624L45.8778 30.5713L45.9461 30.3154V30.1865L45.9637 30.1279C46.0866 29.7214 46.2078 29.2892 46.3299 28.8633C46.2203 28.9948 46.04 29.135 45.9129 29.2246C45.9077 29.2307 45.8919 29.2499 45.8797 29.2637C45.8655 29.2796 45.8436 29.3042 45.8172 29.3281C45.8012 29.3426 45.7767 29.3596 45.7479 29.3789L45.7488 29.3799C45.6041 29.4834 45.4754 29.5766 45.3485 29.6855L45.3319 29.6992L45.3143 29.7109C44.7932 30.0724 44.2982 30.4697 43.7762 30.8672L43.7742 30.8691C43.7617 30.8786 43.7422 30.8972 43.6961 30.9434C43.6606 30.9789 43.598 31.043 43.5291 31.0947L43.5281 31.0938C43.4041 31.1895 43.2861 31.2906 43.1531 31.4004C43.0218 31.5088 42.8795 31.6234 42.7244 31.7344L42.7147 31.7412C42.7231 31.7354 42.7249 31.7335 42.7176 31.7402C42.7098 31.7474 42.7 31.7568 42.6824 31.7744C42.6594 31.7974 42.6188 31.8335 42.5721 31.873V31.9111L42.4051 32.0361C41.9705 32.3627 41.5 32.7601 41.0096 33.1016C40.9802 33.1406 40.954 33.1678 40.9373 33.1846L40.9246 33.1982L40.91 33.21C40.7845 33.3147 40.6528 33.4044 40.533 33.4893L40.4969 33.5625L40.407 33.624C39.9698 33.9228 39.5592 34.2562 39.117 34.5938L39.1082 34.6006C38.2349 35.2314 37.3679 35.8723 36.4822 36.4707L36.4598 36.4863L36.4354 36.498C36.4098 36.5108 36.3861 36.5191 36.369 36.5254L36.3572 36.5332C36.3074 36.5665 36.2561 36.6061 36.1932 36.6533C36.1337 36.698 36.0626 36.7513 35.9901 36.7998C35.9168 36.8487 35.8447 36.8909 35.785 36.9258C35.7223 36.9624 35.6711 36.9916 35.6219 37.0244C35.6069 37.0344 35.6021 37.0404 35.5506 37.0801C35.5175 37.1056 35.4688 37.1387 35.41 37.1719C35.325 37.2311 35.2433 37.2793 35.1785 37.3164C35.105 37.3585 35.0515 37.3898 34.9998 37.4268L34.9793 37.4414L34.9569 37.4531C34.8647 37.5035 34.7719 37.565 34.6668 37.6377C34.5669 37.7068 34.448 37.792 34.327 37.8691L34.3094 37.8809L34.2899 37.8906C34.247 37.9121 34.205 37.9245 34.1766 37.9326C34.1707 37.9375 34.164 37.9436 34.1561 37.9502C34.1293 37.9726 34.0807 38.0137 34.0281 38.0488L34.0067 38.0625L33.9832 38.0742C33.9412 38.0952 33.9059 38.1074 33.8856 38.1143C33.3898 38.4409 32.8568 38.71 32.3358 38.9805C32.315 38.9948 32.2908 39.0133 32.2615 39.0342C32.2275 39.0586 32.1856 39.0884 32.1483 39.1133L32.1268 39.1279L32.1033 39.1396C32.0578 39.1624 32.0159 39.1746 31.9891 39.1816C31.9715 39.1863 31.9538 39.1888 31.9412 39.1914C31.7821 39.292 31.6177 39.3796 31.4647 39.4551C31.2842 39.5441 31.1267 39.6184 30.9764 39.7031L30.9588 39.7129C30.8969 39.7439 30.8382 39.757 30.7928 39.7627C30.7896 39.7631 30.7862 39.7624 30.783 39.7627C30.7706 39.77 30.7543 39.78 30.7313 39.793C30.6958 39.8129 30.6387 39.8392 30.5711 39.8633L30.5721 39.8643C30.0461 40.0961 29.4951 40.2878 28.9549 40.4883L28.8846 40.5146H28.8377C28.8269 40.5173 28.8112 40.5213 28.7947 40.5244C28.7911 40.5251 28.7871 40.5247 28.783 40.5254C28.6778 40.5617 28.5091 40.6231 28.3729 40.6621L28.3172 40.6777H28.244C28.0859 40.7301 27.9134 40.7604 27.7694 40.7832C27.6111 40.8082 27.485 40.8252 27.3709 40.8516L27.325 40.8623H27.1561C27.1469 40.8641 27.1389 40.8669 27.1317 40.8682C27.1038 40.8729 27.0753 40.8768 27.0594 40.8789H27.0565L27.0086 40.9033H26.6844C26.6475 40.9033 26.6152 40.9005 26.5955 40.8984C26.5896 40.8978 26.5824 40.8961 26.577 40.8955L26.576 40.8965C26.3942 40.9296 26.1788 40.9107 26.0213 40.8896C25.851 40.8669 25.6896 40.8331 25.5926 40.8115L25.5711 40.8066L25.5516 40.7998C25.5223 40.79 25.4927 40.7841 25.4344 40.7734C25.3804 40.7636 25.2968 40.7487 25.2039 40.7178L25.1922 40.7139C24.5191 40.4666 23.9273 40.0724 23.5194 39.4717L23.5135 39.4629C23.3175 39.1574 23.0891 38.7282 22.9715 38.3047L22.9725 38.3037C22.9337 38.1715 22.9146 38.0433 22.9002 37.9473C22.8843 37.8409 22.872 37.7674 22.8514 37.6982L22.8338 37.6396V37.4258C22.815 37.3286 22.803 37.23 22.7967 37.1504C22.7878 37.0371 22.7848 36.9627 22.7762 36.8936L22.7752 36.8828C22.753 36.6604 22.7518 36.4152 22.7733 36.2041V36.0137L22.7772 35.9844C22.7831 35.9429 22.7828 35.8973 22.786 35.7949C22.788 35.7282 22.7928 35.6307 22.8133 35.5293V35.3828L22.824 35.3379C22.838 35.2748 22.8456 35.1981 22.8563 35.0908C22.8659 34.9943 22.8783 34.8649 22.9051 34.7441L22.9158 34.6982V34.6123L22.9315 34.5566C22.9464 34.5042 22.9594 34.4442 22.9754 34.3643C22.9876 34.3033 23.0037 34.2281 23.0233 34.1523C23.0306 34.1081 23.0345 34.0662 23.0399 34.0098C23.0448 33.9578 23.0523 33.8863 23.0672 33.8115L23.0701 33.7949L23.075 33.7783C23.133 33.5751 23.1816 33.3653 23.2332 33.1455C23.284 32.9294 23.3378 32.7018 23.4031 32.4834L23.409 32.4658L23.4158 32.4482L23.4197 32.418C23.4243 32.3838 23.4337 32.309 23.4686 32.2217C23.9414 30.6987 24.4783 29.2322 25.0985 27.8652C25.1368 27.7603 25.1746 27.6592 25.2117 27.5615C25.2527 27.4539 25.2923 27.3491 25.3319 27.2402L25.3397 27.2178L25.3504 27.1963C25.4738 26.949 25.5693 26.7988 25.6434 26.6133L25.6492 26.5977L25.657 26.582C25.6713 26.5535 25.6826 26.5273 25.6981 26.4912C25.7131 26.456 25.7331 26.4095 25.7596 26.3564C25.7676 26.3404 25.7807 26.3164 25.7977 26.2871V26.2227L25.8563 26.124C25.9967 25.8895 26.1161 25.6364 26.242 25.3662C26.3648 25.1026 26.4967 24.8172 26.6512 24.5518L26.657 24.541L26.6639 24.5303C26.6823 24.5025 26.7008 24.4648 26.7264 24.4043C26.747 24.3554 26.7837 24.2634 26.8221 24.1865L26.8338 24.1631L26.8485 24.1416C26.8874 24.083 26.9227 24.019 26.9588 23.9512H26.1004C25.9959 23.9736 25.8932 23.9766 25.824 23.9766C25.7745 23.9766 25.7249 23.9749 25.6844 23.9736C25.6413 23.9723 25.6086 23.9717 25.5809 23.9717H16.9168C16.6463 23.9717 16.3864 23.966 16.1365 23.9609C15.8854 23.9558 15.6442 23.9512 15.4041 23.9512H14.8319C14.7928 23.9512 14.7717 23.9542 14.6912 23.958C14.6489 23.96 14.5744 23.9627 14.493 23.9512H14.0213L13.9871 23.9453C13.9841 23.9451 13.9751 23.9442 13.9578 23.9443C13.9282 23.9446 13.9032 23.9466 13.8553 23.9482C13.7973 23.9502 13.6812 23.9523 13.5604 23.9248C13.5271 23.9207 13.4819 23.9197 13.4158 23.9219C13.3599 23.9237 13.256 23.9307 13.1766 23.9307C13.0534 23.9307 12.9317 23.925 12.8211 23.9199C12.7072 23.9147 12.604 23.9102 12.5027 23.9102C12.4688 23.9102 12.429 23.9108 12.3797 23.9121C12.3329 23.9134 12.278 23.915 12.2244 23.915C12.1714 23.915 12.1105 23.9139 12.0516 23.9082C12.0191 23.9051 11.9765 23.8968 11.9295 23.8857C11.9031 23.8842 11.8628 23.8871 11.7645 23.8955C11.7003 23.901 11.578 23.9108 11.449 23.8896H11.1336C11.0256 23.8896 10.8999 23.8841 10.8094 23.8818C10.7077 23.8794 10.6285 23.8798 10.5662 23.8867L10.5438 23.8896H10.5272C10.5272 23.8896 10.5229 23.8904 10.5203 23.8906C10.5071 23.8919 10.4809 23.8947 10.4539 23.8965C10.4263 23.8983 10.388 23.8996 10.3465 23.8975C10.3176 23.896 10.2785 23.8902 10.2342 23.8799L10.1453 23.8809C10.1135 23.882 10.0842 23.8839 10.0457 23.8857C10.0105 23.8874 9.96848 23.8896 9.92755 23.8896H9.88654L9.84552 23.8809C9.79384 23.8706 9.66069 23.8691 9.53986 23.8691H9.23224L9.1922 23.8604C9.1922 23.8604 9.18913 23.86 9.17462 23.8594C9.15824 23.8586 9.13916 23.8584 9.10822 23.8584C9.05466 23.8584 8.95808 23.8596 8.85724 23.8428L8.8338 23.8389L8.81134 23.832C8.7927 23.8267 8.76449 23.8232 8.71173 23.8232C8.68485 23.8232 8.65664 23.8239 8.61994 23.8252C8.58545 23.8264 8.54133 23.8281 8.49689 23.8281H8.23322L8.18732 23.8096C8.17819 23.8094 8.16422 23.8088 8.1424 23.8096C8.11803 23.8105 8.06891 23.8131 8.02716 23.8135L7.85627 23.8018C7.85627 23.8018 7.85148 23.8017 7.84748 23.8018C7.83012 23.8021 7.80894 23.8039 7.77326 23.8066C7.74262 23.809 7.69729 23.8125 7.65216 23.8135C7.60811 23.8144 7.54399 23.8125 7.47541 23.7988L7.46076 23.7969L7.44709 23.793C7.3882 23.7769 7.32075 23.7711 7.21564 23.7686C7.14101 23.7668 7.01628 23.7662 6.8924 23.7461H6.69318L6.66779 23.7432C6.62671 23.738 6.57836 23.74 6.46564 23.7432C6.38952 23.7453 6.27394 23.7466 6.15314 23.7256H5.85431L5.80841 23.7148C5.72173 23.6948 5.61961 23.69 5.46857 23.6846C5.35175 23.6804 5.19732 23.6736 5.04181 23.6455C5.02934 23.6467 5.01102 23.6493 4.99689 23.6504C4.97327 23.6522 4.93345 23.6543 4.88947 23.6514C4.87482 23.6504 4.85585 23.6473 4.8338 23.6436H4.48127L4.43146 23.6309C4.3502 23.6105 4.24967 23.6017 4.10334 23.5908C3.98949 23.5824 3.84002 23.5713 3.69416 23.541H3.5213L3.47052 23.5283C3.42337 23.5166 3.35723 23.509 3.2508 23.498C3.17215 23.49 3.06855 23.4781 2.96564 23.459H2.79572L2.7547 23.4512C2.66755 23.4337 2.56197 23.4165 2.44806 23.3975H2.34943L2.29279 23.3818C2.16615 23.3456 2.03292 23.319 1.87091 23.2832C1.73905 23.2541 1.59 23.2163 1.44513 23.166C1.44015 23.1653 1.43537 23.1656 1.43146 23.165C1.41174 23.162 1.38865 23.1569 1.3797 23.1553C1.37336 23.1541 1.3685 23.1529 1.36505 23.1523H1.29767L1.23322 23.1309C1.15307 23.1041 1.08964 23.0647 1.06818 23.0518C1.06182 23.0479 1.05738 23.0447 1.05451 23.043C0.729223 22.9336 0.450177 22.8158 0.193179 22.4727L0.170718 22.4434L0.154116 22.4092C0.149316 22.3996 0.0905037 22.2934 0.054507 22.1963C0.0189465 22.1001 -0.0257446 21.9341 0.0183742 21.748H0.0164211C0.132019 21.1979 0.459292 20.9676 0.706851 20.7578L0.719546 20.7471L0.732241 20.7383C1.13595 20.4462 1.55923 20.2458 1.98224 20.0439C2.01187 20.0288 2.04726 20.0091 2.09162 19.9844C2.13542 19.96 2.19046 19.9296 2.24103 19.9043L2.32892 19.8604H2.36115C2.37955 19.8477 2.40062 19.8343 2.42462 19.8223L2.44025 19.8145L2.45685 19.8086C2.50411 19.7897 2.54741 19.7766 2.58185 19.7676L2.66388 19.7471C2.69015 19.7405 2.70006 19.7366 2.70294 19.7354L2.72736 19.7207L2.75373 19.71C2.88854 19.6521 3.08718 19.5639 3.26251 19.498C3.29123 19.4863 3.31707 19.4782 3.33673 19.4727L3.44025 19.3691H3.6258C3.82157 19.2877 4.02856 19.2108 4.22541 19.1387C4.4368 19.0612 4.63689 18.9875 4.82013 18.9102L4.89826 18.8779H4.98224C4.9919 18.8779 4.99989 18.877 5.00666 18.877L5.04084 18.8604C5.04541 18.8582 5.04961 18.8547 5.05451 18.8525C5.07118 18.8453 5.09128 18.8382 5.11408 18.832C5.14914 18.8201 5.18221 18.8108 5.21271 18.8057C5.24827 18.7837 5.29876 18.7562 5.36115 18.7354L5.4256 18.7139H5.45978C5.47258 18.7065 5.48572 18.6965 5.50177 18.6895C5.52464 18.6794 5.55312 18.6701 5.58576 18.6631C5.64496 18.6488 5.69664 18.6408 5.72345 18.6367C5.73091 18.6356 5.73667 18.6345 5.74103 18.6338C5.75493 18.6256 5.77065 18.6148 5.78986 18.6064C5.80998 18.5978 5.83514 18.5888 5.86408 18.582C5.87516 18.5786 5.88457 18.5736 5.89337 18.5713C5.9217 18.564 5.94854 18.5592 5.96271 18.5566C5.98313 18.5529 5.99185 18.5514 5.99494 18.5508L5.99689 18.5498C6.01151 18.5404 6.035 18.5264 6.06232 18.5127L6.08869 18.499L6.11701 18.4893C6.15469 18.4767 6.1904 18.4694 6.2215 18.4648L6.3006 18.3867H6.49591C6.52672 18.3692 6.573 18.3445 6.62775 18.3262L6.6922 18.3047H6.76056L6.76349 18.3037L6.80451 18.2842H6.80841C6.81778 18.2788 6.82768 18.2721 6.83869 18.2666L6.92755 18.2227H7.01935C7.03567 18.2171 7.05051 18.211 7.07502 18.2012C7.09999 18.1912 7.13595 18.1767 7.17951 18.1621L7.24396 18.1406H7.30158C7.3157 18.1333 7.33081 18.1234 7.34845 18.1162C7.37046 18.1073 7.39815 18.0971 7.43048 18.0898C7.47554 18.0755 7.51656 18.0702 7.54669 18.0664C7.58192 18.045 7.63039 18.0181 7.69025 17.998L7.7547 17.9766H7.82697L7.83478 17.9727L7.89728 17.9619C7.89728 17.9619 7.90034 17.9612 7.90509 17.96C7.91073 17.9585 7.91849 17.9565 7.92853 17.9531C7.95042 17.9458 7.97489 17.9362 8.00959 17.9229C8.05441 17.9056 8.13429 17.8759 8.2215 17.8545C8.28815 17.8322 8.35163 17.8227 8.37775 17.8184C8.41248 17.8126 8.41138 17.8127 8.40607 17.8145L8.409 17.8125C8.42363 17.8031 8.44657 17.7889 8.47345 17.7754L8.56232 17.7314H8.66095C8.66662 17.7314 8.67148 17.7305 8.6756 17.7305C8.69205 17.7198 8.71372 17.7061 8.73908 17.6934L8.82794 17.6494H8.92658C8.95872 17.6494 8.97425 17.6486 8.98908 17.6475C8.99137 17.6473 8.99358 17.6458 8.99591 17.6455L9.06623 17.6113L9.15509 17.5674H9.2674C9.32284 17.5488 9.38862 17.5255 9.45978 17.5C9.53004 17.4749 9.60634 17.447 9.67267 17.4248L9.73712 17.4033H9.84943C9.88326 17.3837 9.92679 17.3603 9.97931 17.3428L10.0438 17.3213H10.1434L10.2244 17.2393H10.4227L10.4305 17.2354L10.492 17.2246C10.5719 17.2113 10.6847 17.1693 10.8377 17.1182L10.9442 17.0908C10.9765 17.0848 11.0034 17.0812 11.0194 17.0791C11.0462 17.0755 11.0624 17.0723 11.074 17.0703C11.0884 17.0613 11.1083 17.0493 11.1307 17.0381L11.2186 16.9941H11.3524C11.3689 16.9833 11.3911 16.969 11.4168 16.9561L11.5047 16.9121H11.6863C11.7171 16.8946 11.7635 16.8699 11.8182 16.8516L11.8826 16.8301H11.9881C11.9967 16.8299 12.0026 16.8294 12.0067 16.8291C12.0213 16.8197 12.0439 16.8061 12.0701 16.793L12.159 16.748H12.2918L12.3328 16.7334C12.3374 16.7309 12.3432 16.7284 12.3485 16.7256C12.356 16.7215 12.366 16.7163 12.3768 16.7109L12.4656 16.666H12.6258C12.6458 16.6564 12.6714 16.6439 12.701 16.6338C12.7214 16.6268 12.7519 16.6195 12.7889 16.6133C12.8499 16.5977 12.9073 16.5907 12.9549 16.5879C12.9615 16.5842 12.969 16.5805 12.9783 16.5752C12.9905 16.5683 13.0105 16.5572 13.0311 16.5469L13.119 16.5029H13.2176C13.2334 16.5029 13.2446 16.5022 13.2547 16.502C13.2638 16.5018 13.2702 16.5023 13.2742 16.502C13.289 16.4925 13.3114 16.478 13.3377 16.4648L13.4256 16.4209H13.5975C13.6024 16.4188 13.6084 16.4169 13.6151 16.4141C13.6474 16.4002 13.7127 16.3711 13.7908 16.3516L13.8406 16.3389H13.9442C13.9479 16.3367 13.9521 16.3342 13.9559 16.332C13.9709 16.3233 13.9904 16.3114 14.0115 16.3008L14.1004 16.2568H14.199C14.2314 16.2568 14.2528 16.2572 14.2713 16.2559C14.2756 16.2555 14.2788 16.2542 14.2811 16.2539L14.3123 16.2432C14.3174 16.2404 14.3246 16.2378 14.3309 16.2344C14.3384 16.2303 14.3484 16.2251 14.3592 16.2197L14.4471 16.1748H14.5457C14.5895 16.1748 14.6105 16.1751 14.6287 16.1738C14.6318 16.1736 14.6346 16.1722 14.6375 16.1719L14.7069 16.1377L14.7947 16.0928H14.8934C14.9372 16.0928 14.9582 16.0931 14.9764 16.0918C14.9836 16.0913 14.9901 16.089 14.9969 16.0879C15.0113 16.0788 15.031 16.067 15.0535 16.0557L15.1424 16.0117H15.241C15.2622 16.0117 15.278 16.011 15.2918 16.0107C15.3049 16.0105 15.3137 16.0102 15.3192 16.0098C15.3281 16.0091 15.3235 16.0093 15.3133 16.0127L15.3533 15.999C15.3586 15.9961 15.3659 15.9921 15.3729 15.9883C15.3804 15.9842 15.3904 15.979 15.4012 15.9736L15.4901 15.9297H15.5887C15.6321 15.9297 15.6526 15.929 15.6707 15.9277C15.68 15.9271 15.6882 15.9245 15.6971 15.9229C15.7195 15.9145 15.7385 15.9071 15.7694 15.8916L15.8192 15.8662L15.8738 15.8555C15.9466 15.8409 16.0127 15.8375 16.0574 15.8369L16.1307 15.7656H16.3035C16.3139 15.7656 16.329 15.7644 16.3738 15.7588C16.3836 15.7576 16.3963 15.7575 16.41 15.7559C16.4312 15.7445 16.4508 15.734 16.4637 15.7275L16.5526 15.6836H16.6512C16.725 15.6836 16.7582 15.6796 16.7811 15.6758C16.8029 15.6675 16.8221 15.6607 16.8524 15.6455L16.9402 15.6016H17.0389C17.0827 15.6016 17.1037 15.6019 17.1219 15.6006C17.1291 15.6001 17.1356 15.5978 17.1424 15.5967C17.1569 15.5876 17.1772 15.5759 17.2 15.5645L17.2879 15.5195H17.3865C17.4756 15.5195 17.5063 15.5176 17.5301 15.5117C17.6833 15.4684 17.8487 15.431 18.0037 15.3965C18.1676 15.36 18.321 15.3262 18.4637 15.2881L18.5174 15.2744H18.6092C18.6186 15.2742 18.6247 15.2738 18.6287 15.2734L18.6238 15.2754L18.6385 15.2705L18.6541 15.2666C18.9516 15.1921 19.2686 15.1284 19.5731 15.0674C19.8816 15.0056 20.1783 14.9457 20.4529 14.877L20.5027 14.8643H20.6912C20.7185 14.8577 20.7512 14.85 20.7918 14.8389C20.8445 14.8245 20.9154 14.8046 20.9832 14.791L21.0233 14.7832H21.0652C21.0589 14.7832 21.0585 14.7833 21.0682 14.7822C21.0777 14.7812 21.0892 14.7791 21.1082 14.7764C21.1247 14.774 21.149 14.7713 21.1736 14.7686C21.1804 14.7678 21.1882 14.7673 21.1961 14.7666C21.4037 14.7044 21.6572 14.6598 21.8211 14.627L21.8611 14.6191H21.9031C21.9344 14.6191 21.957 14.6187 21.9793 14.6172C22.001 14.6157 22.0164 14.6138 22.0262 14.6113C22.284 14.5443 22.5647 14.5 22.8192 14.46C23.0842 14.4183 23.323 14.3803 23.534 14.3252C23.6545 14.2897 23.7557 14.291 23.8035 14.291C23.8535 14.291 23.8441 14.289 23.8348 14.292L23.8592 14.2842L23.8846 14.2793C23.9947 14.2572 24.1253 14.235 24.2459 14.2148C24.3703 14.1941 24.4858 14.1751 24.5799 14.1562L24.5926 14.1533C24.6708 14.1403 24.7421 14.1347 24.7928 14.1299C24.8478 14.1246 24.879 14.1206 24.9061 14.1152C24.9479 14.1051 24.9923 14.0946 25.0311 14.0859C25.0782 14.0755 25.1188 14.0672 25.1531 14.0586L25.2029 14.0459H25.2547C25.2969 14.0459 25.3316 14.0458 25.3641 14.0439C25.3974 14.0421 25.4142 14.0392 25.4188 14.0381L25.4227 14.0371C25.6632 13.9797 25.927 13.9461 26.1649 13.916C26.4125 13.8847 26.6367 13.8563 26.8377 13.8105L26.8826 13.7998H27.0955C27.1829 13.7817 27.2648 13.7706 27.3279 13.7627C27.4133 13.752 27.47 13.7438 27.5233 13.7305L27.5399 13.7266L27.5565 13.7236C27.6572 13.7069 27.7527 13.708 27.8084 13.708C27.8674 13.708 27.8953 13.7058 27.9158 13.7031C28.0768 13.6588 28.2462 13.6372 28.3865 13.6211C28.5551 13.6017 28.6868 13.5887 28.8045 13.5635L28.8475 13.5547H28.8914C28.9446 13.5547 28.9938 13.5537 29.0399 13.5518L29.1707 13.54C29.3033 13.5148 29.431 13.5086 29.5252 13.5039C29.5787 13.5012 29.6233 13.4986 29.6629 13.4951L29.7703 13.4805C29.8836 13.4543 29.9762 13.4523 30.0496 13.4521C30.1792 13.4325 30.3133 13.426 30.4119 13.4199C30.5358 13.4123 30.6292 13.4032 30.7108 13.3828L30.7615 13.3701H30.994C31.1383 13.3394 31.2801 13.3332 31.3777 13.3291C31.51 13.3236 31.5837 13.3187 31.6424 13.3027L31.6971 13.2881H31.8992C31.9751 13.279 32.0502 13.2726 32.1092 13.2686C32.1876 13.2631 32.2385 13.2592 32.2762 13.2529L32.3104 13.2471H32.4695C32.6273 13.2271 32.8216 13.2266 32.9383 13.2266H33.0926C33.1986 13.2042 33.2912 13.2068 33.3455 13.209C33.4189 13.2119 33.4419 13.212 33.4627 13.21C33.6076 13.1734 33.757 13.1709 33.8553 13.1709C33.8879 13.1709 33.9163 13.1697 33.9412 13.1699C33.9995 13.0944 34.0591 13.0266 34.1121 12.9678C34.2167 12.8517 34.2923 12.7719 34.3572 12.6826L34.3631 12.6748C34.5326 12.4519 34.7119 12.235 34.8846 12.0264C35.0591 11.8155 35.2273 11.6121 35.3846 11.4053L35.3856 11.4062C35.4287 11.3464 35.4741 11.3002 35.493 11.2812C35.5231 11.2511 35.5187 11.2544 35.5125 11.2637L35.5223 11.248L35.534 11.2344C35.624 11.1216 35.719 11.0157 35.8045 10.9199L36.0447 10.6406C36.0862 10.5847 36.1292 10.5416 36.1473 10.5234C36.177 10.4936 36.173 10.4966 36.1668 10.5059L36.1727 10.4961L36.1795 10.4863C36.2565 10.3835 36.3443 10.2905 36.4129 10.2168C36.4872 10.1371 36.5432 10.0764 36.5887 10.0156L36.6063 9.99219L36.6278 9.9707C36.6523 9.94606 36.6872 9.91002 36.7371 9.87305C36.9001 9.65727 37.084 9.46752 37.2469 9.2998C37.4344 9.10667 37.5956 8.93869 37.7274 8.75391L37.8524 8.5791H37.9119C37.9877 8.48901 38.0696 8.40958 38.1541 8.33691C38.1893 8.29431 38.2233 8.26042 38.2479 8.23828C38.264 8.22373 38.283 8.20797 38.2908 8.20117C38.295 8.19752 38.2977 8.19417 38.2996 8.19238C38.5025 7.93446 38.7583 7.71245 38.9158 7.55469C39.0982 7.37199 39.3561 7.07715 39.6356 6.85352L39.6375 6.85156C39.6437 6.84422 39.6513 6.83555 39.6619 6.82227C39.6786 6.80143 39.7139 6.75577 39.7537 6.71582L39.7674 6.70215L39.782 6.69043C39.8469 6.63627 39.979 6.51578 40.1092 6.41211C40.1117 6.4086 40.114 6.40507 40.116 6.40234C40.1445 6.36434 40.1778 6.33269 40.1834 6.32715L40.201 6.30859L40.2215 6.29199C40.2892 6.23922 40.3585 6.1718 40.449 6.08105C40.532 5.99793 40.6377 5.89121 40.7537 5.80078C40.892 5.68959 41.0215 5.56815 41.1697 5.43262C41.3157 5.29926 41.4772 5.15449 41.658 5.01855L41.6678 5.01172L41.6776 5.00195C41.6857 4.99287 41.6917 4.98604 41.7059 4.96973C41.7173 4.95657 41.7355 4.93528 41.7567 4.91406L41.7811 4.88965L41.8094 4.86914C42.01 4.72553 42.1987 4.57007 42.3973 4.4043C42.593 4.24091 42.8016 4.06521 43.0252 3.89453L43.0438 3.87988L43.0633 3.86816C43.0751 3.86104 43.0923 3.84727 43.1434 3.80176C43.1783 3.77064 43.2408 3.71663 43.3153 3.66699L43.3143 3.66602C44.2011 3.00479 45.1283 2.36501 46.074 1.74707L46.0945 1.73438L46.116 1.72363C46.193 1.68509 46.285 1.6486 46.3338 1.62793C46.3941 1.60236 46.4312 1.58383 46.4588 1.56543L46.4695 1.55859L46.8592 1.32812C47.2355 1.11803 47.6214 0.934391 48.0203 0.755859C48.0281 0.749667 48.0361 0.742508 48.0447 0.736328C48.0741 0.715293 48.1364 0.674063 48.2235 0.651367C48.3663 0.591774 48.5068 0.54176 48.6395 0.495117C48.7881 0.442873 48.9264 0.395098 49.0692 0.337891C49.4123 0.200382 49.8389 0.126588 50.1453 0.0546875C50.1868 0.044308 50.2257 0.0392123 50.2488 0.0371094C50.2754 0.0347044 50.3032 0.0331498 50.327 0.0322266C50.3703 0.030552 50.4297 0.0293439 50.4676 0.0283203C50.4937 0.0276132 50.5155 0.026375 50.533 0.0253906L50.5692 0H50.6961ZM46.6463 23.6221C46.6434 23.6223 46.6407 23.6218 46.6385 23.6221L46.5877 23.6436H46.5067C46.47 23.6435 46.4366 23.6415 46.4129 23.6396C46.3835 23.6373 46.3748 23.6358 46.3582 23.6348C46.3542 23.6345 46.3509 23.6348 46.3485 23.6348L46.3436 23.6357C46.2389 23.6567 46.1271 23.6539 46.0594 23.6514C45.9685 23.648 45.926 23.6436 45.8738 23.6436H45.7254L43.5184 23.7256H43.5028C43.3151 23.7256 43.1264 23.7302 42.9315 23.7354C42.7451 23.7403 42.5526 23.7448 42.3592 23.7451C42.2323 23.7646 42.1005 23.7715 41.9881 23.7715C41.9206 23.7715 41.8529 23.7698 41.7918 23.7686C41.7292 23.7673 41.6737 23.7666 41.6229 23.7666H41.3953C41.2407 23.7977 41.0739 23.8072 40.9295 23.8096C40.7719 23.8121 40.5776 23.8076 40.4578 23.8076H37.9998C37.8771 23.8288 37.7495 23.833 37.6453 23.833C37.5826 23.833 37.5195 23.8313 37.4637 23.8301C37.4062 23.8288 37.3565 23.8281 37.3113 23.8281C37.1774 23.8281 37.0469 23.8327 36.908 23.8379C36.7713 23.843 36.6253 23.8486 36.4735 23.8486C36.4209 23.8486 36.3675 23.847 36.3211 23.8457C36.2727 23.8444 36.2299 23.8428 36.1893 23.8428C36.1051 23.8428 36.0544 23.8487 36.0233 23.8564L35.9735 23.8691H35.409C35.2436 23.8893 35.0733 23.8833 34.9442 23.8789C34.786 23.8735 34.6702 23.8705 34.5701 23.8848L34.5594 23.8867L34.5477 23.8877C34.0562 23.9305 33.4604 23.8897 33.0194 23.8896C31.5174 23.8896 30.0402 23.8894 28.6004 23.9248C28.5979 23.9289 28.5953 23.9333 28.5926 23.9375C28.5226 24.0517 28.4591 24.1778 28.3865 24.3232C28.3166 24.4633 28.2372 24.6241 28.1444 24.7754C28.1351 24.7916 28.1253 24.8131 28.1111 24.8516C28.1055 24.8668 28.0929 24.9028 28.0838 24.9268C28.073 24.9553 28.0579 24.9922 28.0389 25.0303L28.0242 25.0596L28.0057 25.0859C27.9286 25.1941 27.9016 25.2849 27.7938 25.501L27.7879 25.5127C27.653 25.7638 27.5355 26.0181 27.4158 26.2979L27.4149 26.2969C27.3801 26.3811 27.3342 26.4589 27.3084 26.502C27.2742 26.5592 27.2624 26.5814 27.2567 26.5957L27.2527 26.6055L27.2479 26.6152C27.1291 26.8731 27.0299 27.1122 26.9276 27.3584L26.9217 27.3721L26.9149 27.3848C26.898 27.4183 26.8799 27.4461 26.867 27.4648C26.8543 27.4833 26.8414 27.5009 26.8348 27.5098L26.8319 27.5127C26.3239 28.734 25.8051 29.978 25.3856 31.2588L25.3846 31.2607C25.2037 31.8044 25.0701 32.3417 24.9002 32.917C24.8723 33.0194 24.8489 33.1245 24.8231 33.2383C24.7979 33.3493 24.7704 33.4714 24.7371 33.5938L24.7361 33.5986C24.7034 33.7136 24.6808 33.8441 24.658 33.9961C24.6366 34.1393 24.613 34.3121 24.5789 34.4717L24.576 34.4854C24.5447 34.6109 24.5314 34.7563 24.5154 34.9424C24.502 35.0993 24.4851 35.2909 24.4442 35.4766C24.444 35.5737 24.4412 35.6881 24.4207 35.8066L24.4217 35.8076C24.4157 35.8559 24.4153 35.9267 24.4178 36.0215C24.4199 36.1013 24.4256 36.2219 24.4256 36.3096V36.3506L24.4168 36.3906C24.4124 36.4128 24.41 36.4421 24.41 36.4678C24.41 36.4746 24.4097 36.4805 24.41 36.4844L24.4139 36.4951L24.4197 36.5273C24.4397 36.6479 24.428 36.7671 24.4236 36.8213C24.4209 36.8559 24.4201 36.8746 24.4197 36.8896L24.4168 36.8828C24.44 36.9767 24.4437 37.0715 24.4442 37.1279C24.4634 37.2275 24.4759 37.3225 24.4842 37.3955C24.4941 37.4821 24.5014 37.5403 24.5125 37.5889C24.6711 38.0827 24.8193 38.4176 25.0233 38.6621C25.2164 38.8934 25.4852 39.0727 25.9442 39.1982C25.9721 39.2034 25.9975 39.2076 26.032 39.2119C26.0701 39.2167 26.1198 39.2227 26.1805 39.2344C26.224 39.2416 26.3011 39.2505 26.3826 39.2549C26.4689 39.2596 26.5338 39.2583 26.5643 39.2539C26.6296 39.2446 26.6913 39.2428 26.7401 39.2432C26.786 39.2435 26.8401 39.2461 26.8719 39.2471C26.9095 39.2482 26.9354 39.2482 26.9559 39.2471C26.9685 39.2464 26.9758 39.2456 26.9783 39.2451L27.035 39.2285H27.199C27.2897 39.2106 27.3836 39.1923 27.4754 39.1748C27.5711 39.1565 27.6648 39.1379 27.7547 39.1201C27.845 39.0878 27.9243 39.0818 27.9705 39.0791C28.0182 39.0763 28.0331 39.0739 28.0418 39.0732C28.0972 39.0568 28.1589 39.0378 28.2283 39.0146L28.4705 38.9375C28.5402 38.913 28.6002 38.8989 28.6375 38.8906C28.6847 38.8801 28.7001 38.8763 28.7156 38.8701L28.7235 38.8672C29.4841 38.5788 30.215 38.3004 30.8826 37.9463C31.0025 37.8805 31.1288 37.8342 31.2108 37.8018C31.3049 37.7645 31.3665 37.737 31.4188 37.7021L31.4442 37.6865C32.2167 37.2472 32.9721 36.8496 33.701 36.4033C34.6513 35.8157 35.5546 35.1724 36.5057 34.5303L36.5145 34.5234L36.5242 34.5186C36.5443 34.5065 36.5739 34.4842 36.6219 34.4434C36.6597 34.4112 36.7273 34.3502 36.784 34.3047L36.8016 34.291C37.4445 33.828 38.0584 33.3765 38.6863 32.9297C38.7079 32.912 38.7302 32.89 38.786 32.8311C38.8259 32.7888 38.8965 32.7143 38.9881 32.6533L39.4549 32.3008C39.6088 32.1801 39.7623 32.0561 39.9168 31.9307C40.2063 31.6958 40.5032 31.4536 40.8094 31.2236L40.8113 31.2217C40.8211 31.2101 40.8315 31.199 40.8397 31.1904L40.8729 31.124L40.9725 31.0615C41.0299 31.0255 41.088 30.98 41.1678 30.916C41.2258 30.8695 41.2986 30.812 41.3787 30.7568L41.3807 30.7559C41.3947 30.7371 41.4267 30.6944 41.4705 30.6504L41.492 30.6279L41.5174 30.6094C41.7763 30.4172 42.0188 30.2032 42.2723 29.9775C42.5216 29.7555 42.7845 29.5194 43.0643 29.3037C43.0666 29.3008 43.0694 29.2972 43.0721 29.2939C43.0796 29.2849 43.0911 29.272 43.1053 29.2578L43.119 29.2441L43.1336 29.2324C43.2074 29.1708 43.3361 29.0497 43.4656 28.9551C43.4952 28.9252 43.5096 28.912 43.5233 28.8916L43.5692 28.8223L43.6385 28.7754C43.7586 28.6952 43.8604 28.6267 43.9598 28.5449L44.0858 28.418L44.1072 28.3975L44.1307 28.3799C44.1498 28.3655 44.1568 28.3579 44.202 28.3164C44.2241 28.2961 44.2539 28.2697 44.2918 28.2422C44.2985 28.2313 44.3072 28.2174 44.3162 28.2041C44.3334 28.179 44.3585 28.1454 44.3924 28.1113L44.4715 28.0479C44.4851 28.0391 44.4982 28.0323 44.5096 28.0264C44.5277 28.0036 44.5612 27.9631 44.5975 27.9268L44.6453 27.8789L44.699 27.8516C44.7097 27.838 44.7232 27.8206 44.7401 27.8037C44.7889 27.7548 44.8385 27.7185 44.8807 27.6924C44.8925 27.6765 44.9062 27.6582 44.9236 27.6406L45.0037 27.5703C45.0873 27.5046 45.181 27.4521 45.2615 27.4141C45.3713 27.3623 45.5047 27.3149 45.6307 27.2969C45.9724 27.2369 46.2486 27.4296 46.3953 27.627C46.4847 27.7473 46.5523 27.9042 46.5721 28.0742L46.5877 28.0518L46.6375 27.9756C46.8533 27.289 47.0745 26.6085 47.3348 25.9629V25.8232L47.4168 25.7207V25.5518L47.4988 25.4688V25.3926L47.5682 25.2881L47.5916 25.251C47.5996 25.2066 47.614 25.156 47.6375 25.1045C47.647 25.0781 47.6539 25.0532 47.6619 25.0352C47.677 25.0014 47.694 24.9671 47.7059 24.9434C47.7193 24.9164 47.7287 24.8992 47.7352 24.8848C47.7373 24.8799 47.7391 24.874 47.7391 24.874L47.744 24.8525V24.7861L47.7879 24.6982C47.7991 24.6759 47.8111 24.656 47.8201 24.6416L47.8338 24.5771L47.8572 24.4561C47.8423 24.3981 47.8261 24.3186 47.826 24.2295V24.1885L47.8338 24.1475L47.8729 23.9521L47.9295 23.877L48.0516 23.7129L48.0692 23.6914C48.083 23.6753 48.0955 23.6586 48.1082 23.6436H47.2225C47.2185 23.6436 47.2104 23.6442 47.1942 23.6455C47.1849 23.6462 47.1508 23.649 47.1297 23.6504C47.0926 23.6529 47.01 23.6557 46.9158 23.6338V23.6357C46.9095 23.6345 46.887 23.6304 46.8514 23.627C46.8178 23.6237 46.779 23.6211 46.741 23.6201C46.7022 23.6191 46.6693 23.6202 46.6463 23.6221ZM61.0086 26.7461C61.0086 26.7461 61.0115 26.7454 61.0145 26.7441C61.0164 26.7433 61.019 26.7408 61.0223 26.7393C61.0105 26.7442 61.0032 26.7482 61.0086 26.7461ZM32.6014 14.7139C32.5804 14.7149 32.5593 14.7144 32.5399 14.7148L32.5389 14.7168H32.1903C32.0067 14.747 31.8172 14.7479 31.6776 14.75C31.5041 14.7526 31.3844 14.7584 31.2879 14.7842L31.2352 14.7988H30.9119C30.7666 14.818 30.6158 14.8247 30.4979 14.8311C30.3547 14.8387 30.2439 14.8484 30.1502 14.8701L30.1043 14.8809H29.9217C29.8166 14.903 29.7252 14.9007 29.6717 14.8984C29.6295 14.8967 29.6145 14.8957 29.5926 14.8955C29.5786 14.8954 29.5731 14.8955 29.5731 14.8955L29.5721 14.8945C29.4563 14.9183 29.3322 14.9315 29.2381 14.9404C29.1239 14.9513 29.0439 14.9589 28.9822 14.9727L28.9373 14.9834H28.6981C28.5517 15.0123 28.3973 15.0292 28.2694 15.042C28.1095 15.058 27.9844 15.0712 27.8826 15.0947L27.8651 15.0996L27.8475 15.1016C27.7285 15.1186 27.6202 15.1102 27.5789 15.1084C27.5577 15.1075 27.5467 15.1073 27.5428 15.1074L27.532 15.1113L27.5115 15.1162C27.394 15.1424 27.2787 15.1552 27.1902 15.165C27.0953 15.1756 27.0259 15.1836 26.9598 15.1982L26.9149 15.208H26.7479C26.6623 15.2268 26.579 15.2387 26.5184 15.2461C26.4278 15.2571 26.3678 15.2644 26.3162 15.2773L26.2664 15.29H26.1297C25.9915 15.3189 25.8469 15.34 25.7205 15.3574C25.568 15.3785 25.439 15.3972 25.3279 15.4229L25.327 15.4209C25.2039 15.4543 25.088 15.4541 25.0399 15.4541C24.9608 15.4541 24.9635 15.4577 24.9774 15.4531L24.9588 15.459L24.9393 15.4639C24.7863 15.4992 24.6253 15.5221 24.4861 15.542C24.3394 15.563 24.2138 15.5814 24.1014 15.6074L24.0555 15.6182H23.8719C23.8453 15.6246 23.814 15.6323 23.7781 15.6426C23.7335 15.6554 23.6688 15.675 23.619 15.6875L23.5692 15.6992H23.3592C23.0182 15.7791 22.6622 15.8357 22.3279 15.8887C21.9696 15.9455 21.6358 15.9996 21.3299 16.0762L21.3289 16.0752C21.235 16.1018 21.1475 16.1067 21.0897 16.1074C20.9862 16.1279 20.9237 16.1408 20.8729 16.1611L20.7977 16.1914H20.7176C20.6738 16.1914 20.6528 16.1911 20.6346 16.1924C20.6208 16.1934 20.6094 16.1955 20.5945 16.1992H20.5906C20.5784 16.2049 20.5638 16.2137 20.5477 16.2197C20.5115 16.2333 20.4485 16.2529 20.3699 16.2529H20.366C20.3549 16.2541 20.3431 16.2559 20.3211 16.2588C20.2988 16.2618 20.2654 16.2626 20.2274 16.2656C20.1758 16.2825 20.1164 16.3038 20.0428 16.3223L20.0233 16.3262C19.9462 16.3416 19.8664 16.3489 19.8152 16.3535C19.7565 16.3589 19.7238 16.3615 19.699 16.3662C19.474 16.429 19.2385 16.4769 19.0184 16.5205C18.7824 16.5673 18.5629 16.6112 18.3553 16.668L18.3006 16.6826H18.1512C18.0764 16.6999 17.9941 16.7194 17.907 16.7412C17.8064 16.7664 17.6986 16.7936 17.6004 16.8154L17.5994 16.8145C17.5195 16.8354 17.4384 16.8419 17.3797 16.8438C17.3768 16.845 17.3734 16.847 17.3699 16.8486C17.3618 16.8524 17.3349 16.8655 17.3182 16.873C17.2969 16.8826 17.2672 16.8949 17.2332 16.9062L17.1688 16.9277H17.0242C16.9897 16.946 16.941 16.9697 16.8856 16.9883L16.8211 17.0098H16.6356C16.6337 17.0106 16.6318 17.0117 16.6297 17.0127C16.5903 17.0309 16.5257 17.0591 16.4461 17.0791L16.3963 17.0918H16.2928C16.2788 17.0991 16.2633 17.1091 16.2459 17.1162C16.2188 17.1272 16.1827 17.1362 16.1404 17.1436C16.0715 17.1607 16.0025 17.1684 15.9481 17.1709C15.9226 17.1837 15.8656 17.2133 15.8026 17.2344L15.7381 17.2559H15.5731C15.5348 17.2757 15.4864 17.2971 15.4276 17.3076C15.3547 17.3246 15.2904 17.3311 15.2342 17.334C15.2191 17.342 15.2028 17.3534 15.1834 17.3613C15.1586 17.3714 15.1264 17.3803 15.0887 17.3877C15.0206 17.4042 14.9599 17.4124 14.9061 17.416L14.8826 17.4404L14.7703 17.4688C14.6881 17.4894 14.6078 17.4951 14.5408 17.498C14.5255 17.5062 14.5089 17.5173 14.4891 17.5254C14.4654 17.535 14.4347 17.5434 14.3992 17.5508C14.3557 17.5643 14.3168 17.5744 14.284 17.5781C14.2456 17.5825 14.2088 17.5819 14.1854 17.582C14.1686 17.593 14.1464 17.6079 14.1199 17.6211L14.032 17.665H13.8953C13.8859 17.6652 13.8798 17.6657 13.8758 17.666L13.8699 17.668L13.8592 17.6709C13.6264 17.7345 13.3667 17.79 13.1463 17.8428C12.9148 17.8982 12.7095 17.9545 12.535 18.0244L12.5242 18.0283L12.5125 18.0322C12.4268 18.0608 12.3511 18.0633 12.3143 18.0635C12.302 18.0669 12.2832 18.0733 12.2518 18.0859C12.2436 18.0892 12.2347 18.0919 12.2254 18.0957C12.2165 18.0993 12.2062 18.1044 12.1961 18.1084C12.1765 18.1162 12.1508 18.1258 12.1238 18.1348L12.0594 18.1562H11.992C11.9708 18.1562 11.9551 18.157 11.9412 18.1572C11.9388 18.1573 11.9365 18.1572 11.9344 18.1572C11.918 18.1678 11.8967 18.1819 11.8719 18.1943L11.784 18.2383H11.6131C11.5991 18.2456 11.5837 18.2556 11.5662 18.2627C11.5406 18.2731 11.5069 18.2827 11.4676 18.29C11.4006 18.3085 11.3428 18.314 11.2947 18.3164C11.251 18.3316 11.2024 18.3489 11.1512 18.3672C11.0809 18.3923 11.0046 18.4202 10.9383 18.4424L10.9236 18.4473L10.908 18.4512C10.8361 18.4692 10.7719 18.4768 10.7156 18.4805C10.6795 18.4998 10.6341 18.5225 10.5779 18.5342C10.5245 18.5508 10.4755 18.5583 10.4363 18.5615C10.427 18.5647 10.4182 18.5683 10.41 18.5713C10.3912 18.5781 10.3826 18.5822 10.3807 18.583L10.3397 18.6035L10.2947 18.6152C10.2317 18.631 10.1756 18.6382 10.1473 18.6426C10.1332 18.6448 10.125 18.6457 10.1209 18.6465C10.0529 18.6692 10.0263 18.682 9.93146 18.7148C9.8672 18.7371 9.78461 18.7614 9.69806 18.7783C9.64521 18.7931 9.59528 18.8025 9.55255 18.8066C9.5367 18.8171 9.51182 18.8343 9.48127 18.8496L9.39337 18.8936H9.25959C9.24488 18.903 9.22212 18.9181 9.19513 18.9316L9.10724 18.9756H8.98517C8.98014 18.9777 8.9745 18.9799 8.96857 18.9824C8.93764 18.9957 8.88433 19.0193 8.8338 19.0361L8.76935 19.0576H8.72834C8.69002 19.0786 8.6409 19.0987 8.58185 19.1094C8.5327 19.1226 8.48896 19.1311 8.45002 19.1348L8.36408 19.2217H8.16095C8.15196 19.2267 8.14286 19.2332 8.13263 19.2383C8.06077 19.2743 7.99413 19.2849 7.95392 19.2891C7.9414 19.2903 7.92897 19.2895 7.91779 19.29C7.89916 19.3008 7.87579 19.3156 7.84748 19.3271C7.81878 19.3388 7.77994 19.3483 7.73419 19.3555C7.69647 19.365 7.66446 19.3726 7.64435 19.376C7.62859 19.3858 7.61156 19.3996 7.58966 19.4092C7.57699 19.4147 7.56149 19.4178 7.54572 19.4229L7.54669 19.4248C7.54139 19.4266 7.53537 19.4271 7.53009 19.4287C7.52162 19.4311 7.51293 19.4336 7.50373 19.4355C7.46399 19.4462 7.42581 19.4537 7.39044 19.458L7.37384 19.4756L7.28107 19.5068C7.24069 19.5203 7.20315 19.5281 7.1756 19.5332C7.14843 19.5382 7.12156 19.5426 7.10529 19.5449C7.08671 19.5476 7.07727 19.5475 7.07013 19.5488L7.06134 19.5527L7.04572 19.5566C7.00925 19.5658 6.89915 19.6104 6.82502 19.6475L6.79767 19.6611L6.77033 19.6709C6.70594 19.6924 6.64248 19.7019 6.58869 19.707C6.57053 19.7192 6.54701 19.7356 6.51837 19.75L6.42951 19.7949H6.34064L6.25861 19.876H6.07209C5.94346 19.9305 5.80243 19.9766 5.69513 20.0117C5.56062 20.0558 5.46108 20.0921 5.38654 20.1328L5.29377 20.1836H5.18634L5.18341 20.1846C5.17639 20.1854 5.16833 20.1859 5.15705 20.1875C5.11777 20.2127 5.06953 20.238 5.01056 20.252C4.97677 20.2636 4.95086 20.271 4.94123 20.2734C4.91599 20.2798 4.9382 20.2749 4.96466 20.2617C4.92578 20.2812 4.8829 20.2983 4.86212 20.3066C4.8487 20.312 4.83891 20.3159 4.83087 20.3193C4.82593 20.3214 4.82209 20.3232 4.82209 20.3232L4.75959 20.3535L4.72638 20.3887H4.65216C4.64273 20.3929 4.63234 20.3982 4.62091 20.4023C4.60607 20.4077 4.58723 20.4131 4.56525 20.418C4.55611 20.4207 4.5483 20.4258 4.54084 20.4277C4.51271 20.4349 4.48664 20.4408 4.47248 20.4434C4.46378 20.4449 4.4569 20.4454 4.45197 20.4463C4.37787 20.4832 4.25558 20.5404 4.14826 20.5713C4.12244 20.5808 4.09791 20.5893 4.07404 20.5947C4.04684 20.6144 4.01677 20.635 3.98419 20.6514L3.8963 20.6953H3.81818L3.74396 20.7295C3.73938 20.7311 3.73424 20.7318 3.72931 20.7334C3.70868 20.7417 3.68638 20.7476 3.66291 20.7539C3.64211 20.7687 3.60844 20.7911 3.56232 20.8086C3.47893 20.8471 3.4089 20.8694 3.35431 20.8838C3.29831 20.8986 3.28239 20.9025 3.26642 20.9082C3.24011 20.922 3.20953 20.9394 3.17267 20.96C3.12886 20.9843 3.07381 21.0147 3.02326 21.04L2.99689 21.0537L2.96857 21.0625C2.85931 21.099 2.80871 21.1147 2.75763 21.1318C2.71407 21.1684 2.64859 21.212 2.56037 21.2334C2.54685 21.2384 2.53648 21.2446 2.52912 21.2471C2.51744 21.251 2.52551 21.2488 2.53302 21.2451L2.52619 21.248C2.18868 21.4091 1.86332 21.5928 1.58576 21.7939C1.75638 21.8584 1.9619 21.9128 2.18927 21.9775C2.1977 21.9787 2.2089 21.9793 2.26837 21.9824C2.32414 21.9854 2.39884 21.9942 2.4881 22.0186C2.58227 22.0374 2.69954 22.0564 2.82404 22.0771C2.94454 22.0973 3.07439 22.1196 3.18439 22.1416C3.2393 22.1526 3.30054 22.1533 3.409 22.1533H3.46759L3.52423 22.1699C3.56368 22.1811 3.60736 22.1875 3.68244 22.1982C3.734 22.2056 3.80419 22.2179 3.88068 22.2354H4.06818L4.1131 22.2451C4.17608 22.2591 4.25257 22.2675 4.36017 22.2783C4.44154 22.2865 4.54526 22.2983 4.64826 22.3174H4.84455L4.88947 22.3271C4.92785 22.3356 4.98608 22.3379 5.10236 22.3379C5.17701 22.3379 5.30258 22.3374 5.4256 22.3584H5.61603L5.67462 22.376C5.70623 22.3854 5.76215 22.3887 5.90412 22.3887C6.00103 22.3887 6.15438 22.3891 6.30841 22.4199H6.50568L6.55548 22.4326C6.59138 22.4415 6.64221 22.4456 6.74298 22.4512C6.82124 22.4555 6.94519 22.4616 7.06623 22.4893C7.06336 22.4887 7.06152 22.4877 7.05939 22.4873C7.07353 22.487 7.0911 22.4852 7.12384 22.4824C7.15186 22.4801 7.19568 22.4766 7.24005 22.4756C7.2624 22.4751 7.28953 22.4747 7.31916 22.4766L7.41486 22.4893L7.44025 22.4941L7.45392 22.499H7.53302C7.56148 22.4981 7.61307 22.4955 7.65607 22.4951C7.70115 22.4947 7.76402 22.4959 7.8299 22.5068L7.84357 22.5098C7.84141 22.5093 7.84612 22.51 7.86115 22.5107C7.8767 22.5115 7.89449 22.5117 7.92267 22.5117C7.94712 22.5117 7.98499 22.5117 8.02228 22.5137C8.04031 22.5146 8.0617 22.5195 8.08576 22.5225H8.27228C8.33578 22.5225 8.42514 22.529 8.5008 22.5371C8.55228 22.5426 8.61572 22.552 8.67365 22.5625H9.659L9.71564 22.5791C9.72856 22.5827 9.76695 22.5889 9.84845 22.5889C9.88607 22.5889 9.92557 22.5872 9.97052 22.5859C10.0133 22.5847 10.0641 22.583 10.1121 22.583H10.3602L10.4041 22.5928C10.6373 22.6427 10.9955 22.6445 11.3172 22.6445H12.0467L12.0809 22.6504C12.0984 22.6533 12.1298 22.6547 12.1932 22.6523C12.242 22.6505 12.3399 22.6445 12.4207 22.6445C12.5163 22.6445 12.6208 22.6503 12.7098 22.6553C12.8045 22.6605 12.8842 22.665 12.952 22.665H13.325L13.3699 22.6758C13.3964 22.6816 13.4352 22.6814 13.5428 22.6758C13.607 22.6724 13.711 22.6663 13.825 22.6777L13.9422 22.6953L13.9617 22.6992C13.9779 22.6994 13.9993 22.7 14.0418 22.6973C14.0787 22.6949 14.1355 22.6905 14.1942 22.6914C14.2428 22.6922 14.3032 22.6986 14.369 22.7129L14.3699 22.7119C14.387 22.7147 14.4224 22.7163 14.493 22.7139C14.5472 22.712 14.6503 22.7061 14.7303 22.7061C14.8444 22.7061 14.9571 22.7118 15.0594 22.7168C15.1647 22.7219 15.2625 22.7265 15.3631 22.7266H18.5281L18.5652 22.7334C18.7404 22.7652 18.9508 22.7471 19.2254 22.7471H19.5701C19.6364 22.7373 19.7027 22.7315 19.7567 22.7314C19.8202 22.7315 19.9019 22.7373 19.9793 22.752C19.9865 22.7517 19.9977 22.7517 20.0262 22.749C20.0513 22.7466 20.0934 22.7423 20.1375 22.7412C20.1755 22.7403 20.2242 22.7427 20.2781 22.751L20.2791 22.75C20.3271 22.756 20.3971 22.7574 20.4949 22.7549C20.5791 22.7527 20.7015 22.7471 20.7996 22.7471C20.8965 22.7471 20.9917 22.7528 21.0711 22.7578L21.2899 22.7676C21.398 22.7587 21.5106 22.7575 21.6082 22.7598C21.732 22.7627 21.8271 22.7676 21.9236 22.7676H22.9246C23.1749 22.7676 23.4159 22.7629 23.659 22.7578C23.9009 22.7527 24.146 22.7471 24.3963 22.7471H26.6033C26.8542 22.7471 27.1193 22.7469 27.3211 22.7285L27.3397 22.7266H27.3592C27.4458 22.7266 27.553 22.7313 27.6219 22.7334C27.8098 22.4 28.0052 22.0665 28.1834 21.7588C28.1902 21.7324 28.2055 21.6807 28.2322 21.627L28.2488 21.5938L28.2713 21.5635C28.3211 21.4969 28.3916 21.39 28.4461 21.2998C28.4493 21.2915 28.4539 21.2813 28.4588 21.2705C28.4673 21.2519 28.4809 21.2255 28.5008 21.1963C29.3311 19.8367 30.1568 18.4313 31.0838 17.1104L31.0897 17.1016L31.0955 17.0938C31.2278 16.9234 31.2989 16.7877 31.4461 16.5664L31.45 16.5596L31.4549 16.5527C31.6706 16.2543 31.8903 15.9527 32.1063 15.6523L32.7371 14.7588C32.7528 14.7357 32.7702 14.715 32.786 14.6963H32.7469C32.6867 14.7067 32.6319 14.7123 32.6014 14.7139ZM34.6541 14.665C34.6033 14.6758 34.5574 14.6789 34.5184 14.6777C34.5104 14.6858 34.4849 14.7096 34.4549 14.7334C34.4243 14.7771 34.3944 14.8203 34.3641 14.8643C34.3206 14.9272 34.2744 14.9922 34.2244 15.0625L34.2254 15.0635C34.1697 15.1471 34.1036 15.2262 34.0526 15.2871C33.9978 15.3524 33.9529 15.4047 33.9139 15.459C33.7092 15.7845 33.463 16.1037 33.2645 16.3926L33.2654 16.3936C33.2186 16.4639 33.1625 16.518 33.1414 16.5391C33.1119 16.5686 33.1159 16.5666 33.1219 16.5576C32.8394 16.9822 32.5687 17.3999 32.2791 17.8145L32.2781 17.8135C32.2096 17.9157 32.1301 18.0201 32.0692 18.1016C32.0011 18.1925 31.9499 18.2653 31.9139 18.3301L31.907 18.3428L31.8992 18.3545C31.6759 18.7003 31.4569 19.0473 31.2371 19.3955C31.0178 19.7431 30.7971 20.0934 30.5711 20.4434L30.5701 20.4424C30.4877 20.571 30.4132 20.7081 30.3319 20.8584C30.2523 21.0054 30.1648 21.169 30.0672 21.332L30.0633 21.3379C29.963 21.4987 29.862 21.6657 29.7596 21.835C29.6578 22.0033 29.5539 22.1753 29.45 22.3418L29.4442 22.3516C29.4292 22.3742 29.4116 22.41 29.3797 22.4873C29.3553 22.5463 29.3177 22.6365 29.2694 22.7266H32.4881C32.5406 22.7266 32.5933 22.7267 32.6414 22.7246C32.665 22.7236 32.6843 22.7223 32.699 22.7207C32.7064 22.7199 32.7112 22.7192 32.7137 22.7188L32.7635 22.7061H33.8104C33.8324 22.7037 33.8519 22.699 33.868 22.6982C33.9063 22.6964 33.9455 22.6963 33.9725 22.6963C34.0035 22.6963 34.0245 22.6961 34.0428 22.6953L34.0613 22.6943C34.1957 22.664 34.3565 22.6602 34.4705 22.6602C34.537 22.6602 34.6027 22.6618 34.659 22.6631C34.7178 22.6644 34.7629 22.665 34.7977 22.665H35.1278C35.2733 22.646 35.4156 22.6598 35.493 22.667C35.5542 22.6727 35.5972 22.6758 35.6287 22.6768L35.6961 22.6738C35.8449 22.6406 36.0001 22.6513 36.0779 22.6553C36.1894 22.661 36.2331 22.6611 36.2596 22.6553L36.2752 22.6514L36.2918 22.6494C36.4021 22.6337 36.526 22.6352 36.6199 22.6377C36.7312 22.6407 36.8064 22.6445 36.8817 22.6445H37.9442C38.2137 22.6445 38.4617 22.6447 38.6863 22.626L38.7039 22.624H38.7215C38.7787 22.624 38.8338 22.6257 38.8817 22.627C38.9315 22.6283 38.9732 22.6299 39.0125 22.6299C39.0922 22.6299 39.1393 22.6243 39.1717 22.6162L39.2215 22.6035H39.3221C39.2568 22.5467 39.2038 22.4859 39.1639 22.4326L39.1404 22.4023L39.1238 22.3682C39.1206 22.362 39.1062 22.3342 39.0975 22.3154C39.0832 22.2846 39.0657 22.242 39.0516 22.1914C39.0238 22.0911 39.01 21.9533 39.0565 21.8008C39.0855 21.6865 39.1379 21.5981 39.1697 21.5488C39.1823 21.5294 39.2102 21.4882 39.2147 21.4814C39.2214 21.4712 39.2264 21.4629 39.2264 21.4629L39.2352 21.4453L39.2459 21.4287C39.2892 21.3594 39.3229 21.2959 39.367 21.2158C39.4091 21.1394 39.4595 21.0493 39.5252 20.957C39.8468 20.4937 40.1694 20.0094 40.4725 19.5439C40.5378 19.4282 40.615 19.2778 40.7029 19.1455C41.0383 18.6313 41.3467 18.0686 41.5565 17.4766L41.5604 17.4648C41.6204 17.3101 41.6778 17.1026 41.7039 16.8916C41.7305 16.6761 41.7208 16.4888 41.6766 16.3555L41.6736 16.3467C41.6249 16.1878 41.4678 15.992 41.3221 15.8896L41.3123 15.8838C40.8376 15.5317 40.2265 15.343 39.4901 15.1377C39.4836 15.1367 39.477 15.1377 39.4715 15.1367C39.4534 15.1333 39.4364 15.1287 39.4256 15.126H39.3885L39.325 15.1045C39.2908 15.0931 39.2423 15.0825 39.1649 15.0664C39.1146 15.056 39.0505 15.0408 38.9842 15.0244H38.8279L38.7723 15.0088C38.6226 14.9672 38.454 14.9443 38.2488 14.918C38.0748 14.8956 37.8709 14.8686 37.6727 14.8193H37.5526L37.5096 14.8096C37.4095 14.7881 37.2944 14.7837 37.1336 14.7783C37.0017 14.7739 36.832 14.7679 36.6629 14.7373H36.2498L36.2039 14.7188C36.1969 14.7187 36.1863 14.7181 36.1707 14.7188C36.1495 14.7196 36.1019 14.7222 36.0613 14.7227C36.017 14.7231 35.9577 14.7217 35.8934 14.7109L35.8807 14.709C35.8583 14.7045 35.8224 14.7009 35.7528 14.6953C35.714 14.6922 35.6637 14.6849 35.6102 14.6787C35.6012 14.6808 35.5909 14.6845 35.5799 14.6865C35.554 14.6914 35.5158 14.6963 35.4715 14.6963H35.4207L35.3709 14.6836C35.274 14.6593 35.2338 14.6758 34.9813 14.6758C34.9008 14.6758 34.7994 14.6699 34.7469 14.668C34.7147 14.6668 34.6902 14.6664 34.6717 14.667C34.6635 14.6672 34.6581 14.6677 34.6551 14.668L34.6541 14.665ZM56.5887 9.2002C56.3211 9.59212 56.0684 9.99567 55.8104 10.4062L55.8016 10.4209L55.7908 10.4346C55.7888 10.4386 55.7826 10.4521 55.7674 10.4863C55.7512 10.5227 55.7152 10.6018 55.66 10.6807L55.661 10.6816C55.4889 10.9403 55.3338 11.2222 55.1727 11.5195C55.0171 11.8065 54.8534 12.1114 54.6746 12.3975L54.5916 12.5723C54.5623 12.6384 54.5205 12.7298 54.4617 12.8203C54.2714 13.1255 54.0971 13.476 53.9383 13.834L53.9315 13.8486L53.9236 13.8623L53.7899 14.1123V14.166L53.7332 14.2637C53.602 14.489 53.4872 14.7373 53.3631 15.0068L53.3582 15.0186L53.3524 15.0293L53.2088 15.2959L53.2059 15.3008C53.1659 15.3731 53.1319 15.4487 53.0916 15.542C53.0529 15.6318 53.0064 15.7424 52.949 15.8574L52.9442 15.8682L52.9383 15.8779L52.8846 15.9697L52.8787 15.9971L52.869 16.0371L52.8514 16.0732L52.5447 16.7285L52.532 16.7568L52.5145 16.7832L52.4529 16.873C52.4386 16.9052 52.4271 16.9448 52.408 17.0215L52.3904 17.0908L52.3504 17.1514L52.3387 17.1689V17.251L52.2479 17.3652L52.2156 17.4043L52.157 17.5957L52.1336 17.6709L52.0838 17.7334L52.0428 17.7842L51.9783 17.9521C51.9638 18.0127 51.9369 18.0619 51.911 18.1016C51.9014 18.1423 51.8884 18.1876 51.866 18.2324L51.8631 18.2383C51.7292 18.4971 51.6127 18.7732 51.4891 19.0674C51.4158 19.2417 51.3378 19.4228 51.2557 19.6035L51.9227 18.6113L51.9363 18.5918L52.0555 18.4502C53.41 16.2807 54.6592 14.0373 55.7059 11.5771L55.7088 11.5713C55.8129 11.3367 55.8855 11.2171 55.9393 11.0557L55.9442 11.043L56.3524 9.93652L56.4266 9.69336L56.4295 9.68555L56.4315 9.67773L56.574 9.27148C56.5807 9.25095 56.5828 9.22986 56.5887 9.2002ZM6.17169 18.5156L6.17365 18.5146L6.1756 18.5117C6.17364 18.5134 6.17169 18.5156 6.17169 18.5156ZM50.5643 1.52734C50.5122 1.5348 50.4592 1.5377 50.4227 1.53906C50.3756 1.5408 50.3565 1.5405 50.327 1.54199C50.3096 1.54288 50.3048 1.54258 50.3084 1.54199C50.1745 1.57444 50.0335 1.59947 49.9266 1.61914C49.8039 1.64172 49.7106 1.66239 49.6336 1.69043L49.618 1.69629C49.1425 1.84875 48.7019 2.01976 48.2596 2.21094C48.2527 2.21638 48.2466 2.22412 48.2391 2.22949C48.2121 2.24873 48.157 2.28233 48.0819 2.30566C47.9853 2.35289 47.8907 2.39677 47.8026 2.43652C47.7019 2.4819 47.6093 2.52304 47.5184 2.56836C46.8639 2.96929 46.2915 3.28165 45.6815 3.66797C45.6185 3.71323 45.5604 3.75947 45.4959 3.80859C45.4338 3.85588 45.3639 3.9063 45.2928 3.9541L45.2938 3.95508L44.4969 4.50781C44.4953 4.5094 44.4932 4.51147 44.491 4.51367C44.4805 4.52422 44.4604 4.54348 44.4383 4.56348C44.4173 4.58247 44.3891 4.60423 44.3563 4.62695L44.3572 4.62891C44.0142 4.87155 43.7115 5.11858 43.3651 5.37891L43.3563 5.38574L43.3465 5.39258C43.3561 5.38618 43.3587 5.38298 43.3514 5.38965C43.344 5.39648 43.3346 5.40539 43.3182 5.42188C43.3041 5.43595 43.2826 5.45833 43.2596 5.47949C43.2402 5.49727 43.2121 5.5183 43.1805 5.54102L43.1815 5.54297C43.0681 5.62813 42.9582 5.71925 42.8397 5.81738C42.7313 5.90709 42.614 6.00193 42.492 6.09473L42.4295 6.15918L42.4197 6.16895L42.409 6.17773C42.2511 6.31619 42.078 6.46643 41.9031 6.59863L41.9041 6.59961C41.8852 6.61489 41.8656 6.63476 41.826 6.67969C41.7954 6.71441 41.7308 6.79119 41.6492 6.85254L41.6414 6.8584C41.5938 6.89249 41.5498 6.93182 41.4861 6.99023C41.4366 7.03569 41.3714 7.09322 41.2957 7.15137C41.2886 7.15983 41.282 7.17011 41.2694 7.18555C41.2452 7.21513 41.208 7.25952 41.1619 7.30566L41.1395 7.3291L41.1131 7.34766C40.9134 7.49323 40.7881 7.63994 40.5486 7.85742C40.4497 7.95651 40.3253 8.06545 40.2459 8.13867C40.1542 8.22333 40.0886 8.2913 40.0438 8.35547C40.0053 8.41111 39.9627 8.45128 39.9295 8.47852C39.8971 8.50505 39.8647 8.52691 39.8524 8.53516L39.8485 8.53711C39.7779 8.6199 39.7059 8.68643 39.6483 8.73633C39.5969 8.78076 39.5633 8.80896 39.534 8.83594C39.4983 8.89199 39.4557 8.9542 39.4051 9.00488L39.3914 9.01855L39.3768 9.03027C39.2736 9.1164 39.1893 9.20132 39.1033 9.30469L39.1024 9.30371C39.0737 9.33984 39.0462 9.37095 39.0233 9.39355C38.9995 9.41692 38.9692 9.44454 38.9559 9.45703C38.9245 9.48651 38.9158 9.49805 38.9158 9.49805L38.8895 9.54199L38.8533 9.57812C38.8222 9.6093 38.7882 9.63498 38.7537 9.65527C38.749 9.65803 38.7436 9.65964 38.7391 9.66211C38.6673 9.75137 38.5949 9.83282 38.534 9.89746C38.4437 9.99328 38.3789 10.0638 38.3279 10.1367L38.283 10.2012L38.2176 10.2451C38.1941 10.2608 38.1778 10.275 38.1375 10.3154C38.0755 10.3777 38.0089 10.4607 37.9236 10.5674L37.909 10.5859L37.8924 10.6016C37.8669 10.6271 37.8301 10.6647 37.7772 10.7031C37.7318 10.7616 37.6888 10.8175 37.6502 10.8633C37.5925 10.9317 37.547 10.9857 37.5076 11.041L37.5028 11.0488C37.469 11.0938 37.4316 11.1316 37.4031 11.1592C37.3745 11.187 37.3446 11.2142 37.3231 11.2334C37.2989 11.2549 37.2827 11.2693 37.2694 11.2822C37.2628 11.2886 37.2586 11.2921 37.2567 11.2939L37.2557 11.2959C37.0503 11.5667 36.8234 11.8202 36.6121 12.0596C36.3971 12.3032 36.1947 12.5358 36.0135 12.7842L36.0125 12.7832C35.9663 12.849 35.9173 12.8982 35.8846 12.9277C35.8715 12.9395 35.8558 12.9519 35.8465 12.96C35.8038 13.021 35.7561 13.0838 35.7078 13.1455C35.7314 13.1451 35.7551 13.1445 35.7781 13.1445C35.8278 13.1445 35.8984 13.1445 35.9676 13.1475C36.0107 13.1493 36.0673 13.1553 36.1258 13.1641C36.1572 13.1631 36.1883 13.1613 36.2586 13.1582C36.3098 13.156 36.4125 13.1522 36.5135 13.1738C36.5095 13.173 36.5153 13.174 36.534 13.1748C36.5526 13.1756 36.5741 13.1758 36.6063 13.1758C36.6533 13.1758 36.752 13.1752 36.8475 13.1924L36.8485 13.1914C36.8513 13.1916 36.8591 13.1925 36.8738 13.1924C36.901 13.1921 36.9235 13.1901 36.9695 13.1885C37.0245 13.1865 37.1283 13.1833 37.241 13.207C37.338 13.2084 37.4363 13.2126 37.5272 13.2168C37.6381 13.222 37.7414 13.2266 37.8426 13.2266H37.8983L37.952 13.2412C38.0175 13.2591 38.1057 13.2686 38.2352 13.2764C38.2913 13.2797 38.36 13.2824 38.4324 13.2881L38.6531 13.3154L38.66 13.3164C38.6651 13.3174 38.673 13.3193 38.7215 13.3193C38.7645 13.3193 38.8494 13.3176 38.9461 13.3369L38.9666 13.3418L38.9871 13.3477C39.0865 13.3783 39.212 13.4007 39.366 13.4238C39.4365 13.4344 39.5159 13.4451 39.5965 13.458L39.8367 13.5039L39.8807 13.5137H39.9539L40.0184 13.5352C40.0834 13.5568 40.1566 13.5718 40.2742 13.5977C40.3734 13.6195 40.4992 13.6489 40.6268 13.6973C41.0009 13.8188 41.4183 13.9552 41.7957 14.1387C42.1545 14.3132 42.5058 14.5447 42.7713 14.875C42.777 14.8789 42.7834 14.884 42.7899 14.8887C42.8044 14.8993 42.8311 14.9191 42.8582 14.9463C42.9031 14.9913 42.933 15.0375 42.95 15.0664C42.9669 15.095 42.9808 15.124 42.9871 15.1367L43.0086 15.1582L43.0194 15.1797C43.0275 15.1882 43.0379 15.1994 43.0477 15.2109C43.0584 15.2238 43.0705 15.2397 43.0828 15.2578L43.1209 15.3213L43.1336 15.3477L43.1434 15.376C43.1449 15.3793 43.1482 15.3865 43.1541 15.3975C43.1598 15.4079 43.1653 15.4178 43.1736 15.4326C43.1805 15.4448 43.1919 15.4643 43.202 15.4844C43.202 15.4844 43.205 15.4884 43.2069 15.4912C43.2172 15.5067 43.2407 15.5413 43.2635 15.5869L43.3074 15.6748V15.7627C43.3074 15.7627 43.3078 15.7676 43.3084 15.7705C43.3201 15.7901 43.3375 15.8182 43.3514 15.8525C43.3583 15.8696 43.3647 15.8907 43.3709 15.9141C43.3943 15.9799 43.4018 16.0395 43.4051 16.0762C43.4074 16.1018 43.4075 16.128 43.408 16.1504C43.4197 16.1988 43.4362 16.2679 43.449 16.3408C43.4537 16.3676 43.457 16.4024 43.4617 16.4404C43.7213 16.0894 43.9907 15.7439 44.2498 15.4033C44.4971 15.0525 44.7555 14.6939 44.9949 14.334L45.0067 14.3154L45.0213 14.2988C45.1293 14.169 45.2383 14.041 45.3289 13.9141C46.0627 12.8725 46.7968 11.811 47.5096 10.75L47.5125 10.7451C48.0575 9.95646 48.4875 9.1828 49.032 8.33984C49.0365 8.32508 49.0437 8.30136 49.0545 8.27637C49.0641 8.2542 49.0801 8.22453 49.1024 8.19238L49.1815 8.0791C49.1912 8.0655 49.1996 8.05174 49.2078 8.04004C49.2215 8.00229 49.2382 7.96003 49.2674 7.91992C49.4246 7.64431 49.5862 7.3628 49.7479 7.09961L49.7508 7.09277C49.7539 7.08211 49.7594 7.06656 49.7654 7.0498C49.7715 7.03293 49.7802 7.01153 49.7918 6.98828L49.8006 6.9707L49.8104 6.95312C49.8579 6.87697 49.9063 6.79483 49.9578 6.70703C49.9999 6.63539 50.0445 6.5592 50.0897 6.48535C50.0949 6.46211 50.1033 6.42608 50.116 6.3877L50.1307 6.34375L50.1541 6.30469C50.2714 6.10882 50.38 5.88887 50.5135 5.64355L50.5174 5.63672C50.5403 5.59649 50.5616 5.54593 50.5877 5.47461C50.6099 5.41397 50.6441 5.31359 50.6805 5.22852L50.6903 5.20703C50.7275 5.1323 50.7807 5.05198 50.8182 4.99707C50.8232 4.96694 50.8319 4.9104 50.8514 4.85156L50.8611 4.82422L50.8748 4.79688C51.0076 4.53073 51.0935 4.26549 51.2283 3.92773L51.2342 3.91211L51.242 3.89648C51.2479 3.88462 51.2546 3.86554 51.2654 3.81348C51.2738 3.77341 51.2917 3.67359 51.3221 3.58203C51.3591 3.47087 51.3924 3.35291 51.4285 3.22363C51.4605 3.10925 51.4955 2.98447 51.535 2.8623C51.5458 2.81181 51.5512 2.75327 51.5535 2.6709C51.5556 2.59913 51.5558 2.48069 51.5692 2.37305L51.5731 2.34082L51.5819 2.30957C51.5824 2.30497 51.5834 2.29636 51.5838 2.28418C51.5847 2.25739 51.583 2.22254 51.5799 2.18262C51.5745 2.11282 51.5635 2.04135 51.5545 1.98535C51.4825 1.74001 51.3999 1.66017 51.3162 1.61523C51.202 1.55407 51.0086 1.51547 50.6346 1.51172C50.6082 1.5182 50.5844 1.52446 50.5643 1.52734Z" fill="white"/>
<path d="M80.8777 7.30371C82.4072 7.30374 83.7044 7.58151 84.7684 8.13672C85.8321 8.66971 86.6521 9.5024 87.2283 10.6348C87.8047 11.7674 88.0926 13.2224 88.0926 14.999L83.1385 15.166C83.1163 14.3001 83.0169 13.6004 82.8397 13.0674C82.6623 12.5122 82.4075 12.1005 82.075 11.834C81.7426 11.5675 81.3321 11.4346 80.8445 11.4346C80.2461 11.4346 79.7695 11.6346 79.4149 12.0342C79.0823 12.434 78.9158 12.9675 78.9158 13.6338C78.9159 14.0778 78.9931 14.4888 79.1483 14.8662C79.3255 15.2214 79.5695 15.5544 79.8797 15.8652C80.2122 16.1539 80.6115 16.4317 81.077 16.6982L83.9363 18.1641C84.823 18.6305 85.5994 19.164 86.2645 19.7637C86.9293 20.3633 87.4391 21.0739 87.7938 21.8955C88.1706 22.695 88.3592 23.6613 88.3592 24.7939C88.3592 26.3041 88.0602 27.5812 87.4617 28.625C86.8632 29.6466 86.0095 30.424 84.9012 30.957C83.815 31.4901 82.5179 31.7568 81.0106 31.7568C79.2593 31.7568 77.8068 31.4451 76.6541 30.8232C75.5239 30.1792 74.6818 29.2577 74.1277 28.0586C73.5736 26.8593 73.3077 25.3935 73.3299 23.6611L78.2508 23.4941C78.2508 24.4268 78.3502 25.2044 78.5496 25.8262C78.7713 26.4258 79.0822 26.8705 79.4813 27.1592C79.9024 27.4256 80.4011 27.5696 80.9774 27.5918C81.3097 27.5918 81.6089 27.5478 81.8748 27.459C82.163 27.3701 82.3957 27.2253 82.5731 27.0254C82.7725 26.8034 82.917 26.5484 83.0057 26.2598C83.1165 25.9488 83.1717 25.5821 83.1717 25.1602C83.1717 24.4939 82.9831 23.9383 82.6063 23.4941C82.2516 23.0279 81.7086 22.595 80.9774 22.1953L78.284 20.8291C77.3751 20.3849 76.5767 19.8523 75.8895 19.2305C75.2023 18.5864 74.6706 17.842 74.2938 16.998C73.9169 16.1319 73.7283 15.1436 73.7283 14.0332C73.7283 12.6564 74.0274 11.4681 74.6258 10.4688C75.2243 9.44718 76.056 8.66975 77.1199 8.13672C78.2061 7.58148 79.459 7.30371 80.8777 7.30371Z" fill="white"/>
<path d="M136.045 24.1611C136.045 24.805 136.112 25.3489 136.245 25.793C136.378 26.2372 136.6 26.5819 136.91 26.8262C137.242 27.0481 137.697 27.1592 138.273 27.1592C138.849 27.1591 139.293 27.0482 139.603 26.8262C139.936 26.5819 140.169 26.2371 140.302 25.793C140.434 25.3489 140.501 24.8049 140.501 24.1611V7.70312H145.755V24.6602C145.755 26.237 145.444 27.5589 144.823 28.625C144.225 29.6688 143.36 30.4572 142.229 30.9902C141.121 31.5009 139.758 31.7568 138.139 31.7568C136.588 31.7568 135.246 31.501 134.116 30.9902C133.008 30.4572 132.155 29.6686 131.556 28.625C130.958 27.5589 130.658 26.2261 130.658 24.627V7.70312H136.045V24.1611Z" fill="white"/>
<path d="M183.976 7.30371C185.506 7.30371 186.803 7.58148 187.867 8.13672C188.931 8.66969 189.751 9.50238 190.327 10.6348C190.903 11.7674 191.192 13.2224 191.192 14.999L186.237 15.166C186.215 14.3 186.116 13.6004 185.938 13.0674C185.761 12.5121 185.506 12.1005 185.174 11.834C184.841 11.5675 184.431 11.4346 183.943 11.4346C183.345 11.4346 182.868 11.6345 182.513 12.0342C182.181 12.434 182.014 12.9675 182.014 13.6338C182.015 14.0778 182.092 14.4888 182.247 14.8662C182.424 15.2216 182.669 15.5543 182.979 15.8652C183.312 16.1539 183.71 16.4318 184.176 16.6982L187.036 18.1641C187.923 18.6304 188.698 19.1641 189.363 19.7637C190.028 20.3633 190.538 21.0738 190.892 21.8955C191.269 22.6951 191.458 23.6613 191.458 24.7939C191.458 26.3041 191.159 27.5812 190.56 28.625C189.962 29.6466 189.108 30.424 188 30.957C186.914 31.49 185.617 31.7568 184.109 31.7568C182.358 31.7568 180.906 31.4451 179.754 30.8232C178.623 30.1792 177.781 29.2579 177.226 28.0586C176.672 26.8593 176.406 25.3935 176.429 23.6611L181.349 23.4941C181.349 24.4269 181.45 25.2043 181.649 25.8262C181.871 26.4258 182.181 26.8705 182.58 27.1592C183.001 27.4256 183.5 27.5696 184.076 27.5918C184.409 27.5918 184.708 27.5478 184.974 27.459C185.262 27.3701 185.495 27.2252 185.673 27.0254C185.872 26.8035 186.016 26.5482 186.104 26.2598C186.215 25.9488 186.27 25.5821 186.27 25.1602C186.27 24.4939 186.083 23.9383 185.706 23.4941C185.351 23.0278 184.808 22.5951 184.076 22.1953L181.383 20.8291C180.474 20.385 179.676 19.8522 178.989 19.2305C178.302 18.5864 177.769 17.842 177.392 16.998C177.016 16.1319 176.827 15.1436 176.827 14.0332C176.827 12.6562 177.127 11.4682 177.725 10.4688C178.324 9.44725 179.155 8.66974 180.219 8.13672C181.305 7.58148 182.558 7.30371 183.976 7.30371Z" fill="white"/>
<path fill-rule="evenodd" clip-rule="evenodd" d="M106.305 31.3564H100.818L99.7986 26.0928H94.8817L93.8358 31.3564H88.5154L93.9354 7.70312H100.885L106.305 31.3564ZM95.6317 22.0615H99.0223L97.327 12.9502L95.6317 22.0615Z" fill="white"/>
<path d="M118.01 24.5938H118.076L120.436 7.70312H128.118V31.3564H123.196V13.2334L123.096 13.2002L120.171 31.3564H115.515L112.59 13.2334H112.456V31.3564H107.734L107.801 7.70312H115.648L118.01 24.5938Z" fill="white"/>
<path d="M161.194 12.1338H153.712V17.2314H160.196V21.3955H153.712V26.9258H161.327V31.3564H148.325V7.70312H161.194V12.1338Z" fill="white"/>
<path d="M168.877 26.9258H176.025V31.3564H163.49V7.70312H168.877V26.9258Z" fill="white"/>
</svg>
