<svg width="200" height="48" viewBox="0 0 200 48" fill="none" xmlns="http://www.w3.org/2000/svg">
<path d="M12.0124 48C7.76129 48 4.69205 46.9298 2.80465 44.7893C0.934883 42.6488 0 39.2419 0 34.5686V29.9666H9.20771V35.8528C9.20771 36.9409 9.36647 37.7971 9.68397 38.4214C10.0191 39.0279 10.5924 39.3311 11.4038 39.3311C12.2505 39.3311 12.8326 39.0814 13.1501 38.5819C13.4852 38.0825 13.6528 37.262 13.6528 36.1204C13.6528 34.6756 13.5117 33.4716 13.2295 32.5084C12.9472 31.5273 12.4533 30.5998 11.7478 29.7258C11.0598 28.8339 10.0985 27.7993 8.86375 26.6221L4.68323 22.6087C1.56108 19.6299 0 16.223 0 12.388C0 8.37458 0.917244 5.3155 2.75173 3.2107C4.60386 1.10591 7.27621 0.0535117 10.7688 0.0535117C15.0375 0.0535117 18.0626 1.20401 19.8442 3.50502C21.6434 5.80602 22.543 9.30212 22.543 13.9933H13.0707V10.7559C13.0707 10.1137 12.8855 9.61427 12.5151 9.25752C12.1623 8.90078 11.6772 8.72241 11.0598 8.72241C10.319 8.72241 9.77217 8.93645 9.41938 9.36455C9.08424 9.7748 8.91667 10.3099 8.91667 10.9699C8.91667 11.6299 9.09306 12.3434 9.44584 13.1104C9.79863 13.8774 10.4954 14.7603 11.5361 15.7592L16.9073 20.9766C17.9833 22.0111 18.9711 23.1081 19.8707 24.2676C20.7703 25.4091 21.4935 26.7469 22.0403 28.2809C22.5871 29.7971 22.8605 31.6522 22.8605 33.8462C22.8605 38.2698 22.0491 41.7391 20.4263 44.2542C18.8211 46.7514 16.0165 48 12.0124 48Z" fill="white"/>
<path d="M25.2545 47.5719L29.7526 0.481605H45.5485L49.9672 47.5719H41.1564L40.4949 39.9732H34.8856L34.3035 47.5719H25.2545ZM35.5471 32.4549H39.7805L37.7432 8.50836H37.3198L35.5471 32.4549Z" fill="white"/>
<path d="M53.3666 47.5719V0.481605H67.5486L71.4646 29.1906L75.354 0.481605H89.6683V47.5719H81.1485V13.6455L75.8038 47.5719H67.4428L61.7806 13.6455V47.5719H53.3666Z" fill="white"/>
<path d="M105.107 48C101.226 48 98.3684 46.903 96.5339 44.709C94.6994 42.4972 93.7821 39.2508 93.7821 34.9699V0.481605H102.831V34.5953C102.831 35.3802 102.875 36.1382 102.963 36.8696C103.052 37.5831 103.254 38.1717 103.572 38.6355C103.889 39.0992 104.401 39.3311 105.107 39.3311C105.83 39.3311 106.35 39.1081 106.668 38.6622C106.985 38.1984 107.179 37.6009 107.25 36.8696C107.338 36.1382 107.382 35.3802 107.382 34.5953V0.481605H116.431V34.9699C116.431 39.2508 115.514 42.4972 113.679 44.709C111.845 46.903 108.987 48 105.107 48Z" fill="white"/>
<path d="M120.545 47.5719V0.481605H139.172V9.5786H130.017V18.7559H138.802V27.612H130.017V38.3946H139.78V47.5719H120.545Z" fill="white"/>
<path d="M143.418 47.5719V0.481605H152.732V39.5451H162.31V47.5719H143.418Z" fill="white"/>
<path d="M165.829 14.2876L167.575 7.97324H164.215V0H174.11V7.73244L171.412 14.2876H165.829Z" fill="white"/>
<path d="M189.152 48C184.901 48 181.832 46.9298 179.944 44.7893C178.074 42.6488 177.139 39.2419 177.139 34.5686V29.9666H186.347V35.8528C186.347 36.9409 186.506 37.7971 186.823 38.4214C187.159 39.0279 187.732 39.3311 188.543 39.3311C189.39 39.3311 189.972 39.0814 190.29 38.5819C190.625 38.0825 190.792 37.262 190.792 36.1204C190.792 34.6756 190.651 33.4716 190.369 32.5084C190.087 31.5273 189.593 30.5998 188.887 29.7258C188.199 28.8339 187.238 27.7993 186.003 26.6221L181.823 22.6087C178.701 19.6299 177.139 16.223 177.139 12.388C177.139 8.37458 178.057 5.3155 179.891 3.2107C181.743 1.10591 184.416 0.0535117 187.908 0.0535117C192.177 0.0535117 195.202 1.20401 196.984 3.50502C198.783 5.80602 199.682 9.30212 199.682 13.9933H190.21V10.7559C190.21 10.1137 190.025 9.61427 189.655 9.25752C189.302 8.90078 188.817 8.72241 188.199 8.72241C187.458 8.72241 186.912 8.93645 186.559 9.36455C186.224 9.7748 186.056 10.3099 186.056 10.9699C186.056 11.6299 186.233 12.3434 186.585 13.1104C186.938 13.8774 187.635 14.7603 188.676 15.7592L194.047 20.9766C195.123 22.0111 196.111 23.1081 197.01 24.2676C197.91 25.4091 198.633 26.7469 199.18 28.2809C199.727 29.7971 200 31.6522 200 33.8462C200 38.2698 199.189 41.7391 197.566 44.2542C195.961 46.7514 193.156 48 189.152 48Z" fill="white"/>
</svg>
